<svg width="139" height="139" viewBox="0 0 139 139" fill="none" xmlns="http://www.w3.org/2000/svg">
<path d="M23.167 119.694H123.556C127.652 119.694 131.58 118.067 134.477 115.171C137.373 112.274 139 108.346 139 104.25V88.8055H23.167V119.694Z" fill="#4AA657"/>
<path d="M123.556 19.3055H23.167V88.8055H139V34.75C139 30.6539 137.373 26.7255 134.477 23.8291C131.58 20.9327 127.652 19.3055 123.556 19.3055Z" fill="#C8313E"/>
<path d="M15.4444 19.3055C11.3483 19.3055 7.41997 20.9327 4.52357 23.8291C1.62718 26.7255 0 30.6539 0 34.75L0 104.25C0 108.346 1.62718 112.274 4.52357 115.171C7.41997 118.067 11.3483 119.694 15.4444 119.694H23.1667V19.3055H15.4444Z" fill="white"/>
<path d="M2.95797 112.698L5.37117 108.416L7.84614 112.822L5.75342 116.185C6.41179 116.722 7.11444 117.202 7.85386 117.621L10.9119 112.073L5.42908 103.285L1.11622 109.949C1.82281 111.725 2.85758 113.316 4.13175 114.698L2.95797 112.698ZM23.0937 112.347L17.3136 103.767L11.5142 112.15L16.4796 119.694H18.9777L23.0937 112.347ZM17.4835 108.412L19.9584 112.818L17.4835 116.799L15.0703 112.698L17.4835 108.412ZM23.167 70.7857V67.3339L21.9585 69.0173L23.167 70.7857ZM10.908 27.1282L7.45617 21.5913C4.43346 23.4287 2.13592 26.2512 0.950195 29.5838L5.91172 36.1979L10.908 27.1282ZM2.95797 27.7537L5.37117 23.4717L7.84614 27.8772L5.37117 31.8542L2.95797 27.7537ZM17.8271 36.8002L23.0937 27.3984L17.6418 19.3055H16.9815L11.5181 27.2054L17.8271 36.8002ZM19.9546 27.8733L17.4835 31.8542L15.0703 27.7537L17.4835 23.4717L19.9546 27.8733Z" fill="#C8313E"/>
<path d="M19.1241 57.9167L22.5026 52.3065L23.1667 52.5999V50.1945L17.7379 41.7463L11.2204 50.7968L5.42872 41.507L0 49.8972V52.4069L3.31669 57.9167L5.66811 54.4764L3.98081 52.125L5.24725 50.4338L8.92689 55.1985L3.49817 64.1253L0 59.3105V65.3068L0.223944 65.0095L3.90358 69.7741L0 76.199V80.7436L3.49817 75.9249L8.92689 84.8518L5.87661 88.8056L5.24725 89.6203L4.63719 88.8056L3.98081 87.9291L5.67197 85.5777L3.32056 82.1374L0 87.6511V89.8712L5.55228 98.3386L10.9578 88.8056L11.1625 88.4426L11.3864 88.8056L17.6182 98.8792L23.1667 89.045V87.5353L22.684 87.7515L19.3056 82.1374L16.9503 85.5777L18.6414 87.9291L17.9851 88.8056L17.375 89.6203L16.7456 88.8056L13.6954 84.8556L19.1241 75.9288L23.1667 81.4926V77.0832L18.6994 69.7394L22.379 64.9748L23.1667 66.025V58.3144L18.9426 64.1331L13.5139 55.2023L17.1935 50.4377L18.46 52.125L16.7688 54.4764L19.1241 57.9167ZM16.5449 65.7586V73.2028L11.1586 81.7088L6.08511 73.1681V65.8011L11.1586 57.2564L16.5449 65.7586Z" fill="#C8313E"/>
<path d="M7.84211 64.9555L10.1511 69.1679L7.84211 73.3804L9.53328 74.3071L11.2515 71.1757L12.9697 74.3071L14.6608 73.3804L12.3519 69.1679L14.6608 64.9555L12.9697 64.0288L11.2515 67.1602L9.53328 64.0288L7.84211 64.9555ZM0.100586 101.115L2.51378 105.215L4.98875 101.234L2.51378 96.8289L0.100586 101.115ZM5.95403 101.115L8.36722 105.215L10.8383 101.234L8.36722 96.8289L5.95403 101.115ZM11.6839 101.115L14.0971 105.215L16.5721 101.234L14.0971 96.8289L11.6839 101.115ZM17.8308 101.115L20.244 105.215L22.7151 101.234L20.244 96.8289L17.8308 101.115ZM0.100586 39.0937L2.51378 43.1981L4.98875 39.2134L2.51378 34.8118L0.100586 39.0937ZM5.95403 39.0937L8.36722 43.1981L10.8383 39.2134L8.36722 34.8118L5.95403 39.0937ZM11.6839 39.0937L14.0971 43.1981L16.5721 39.2134L14.0971 34.8118L11.6839 39.0937ZM17.8308 39.0937L20.244 43.1981L22.7151 39.2134L20.244 34.8118L17.8308 39.0937Z" fill="#C8313E"/>
</svg>
