<svg width="19" height="18" viewBox="0 0 19 18" fill="none" xmlns="http://www.w3.org/2000/svg">
<g clip-path="url(#clip0_57_7343)">
<path d="M18.2236 13.5C18.2236 14.0304 18.0129 14.5391 17.6378 14.9142C17.2628 15.2893 16.7541 15.5 16.2236 15.5H2.22363C1.6932 15.5 1.18449 15.2893 0.809419 14.9142C0.434347 14.5391 0.223633 14.0304 0.223633 13.5V4.5C0.223633 3.96957 0.434347 3.46086 0.809419 3.08579C1.18449 2.71071 1.6932 2.5 2.22363 2.5H16.2236C16.7541 2.5 17.2628 2.71071 17.6378 3.08579C18.0129 3.46086 18.2236 3.96957 18.2236 4.5V13.5Z" fill="#00AFCA"/>
<path d="M9.74109 9.68901C10.5322 9.68901 11.1736 9.04765 11.1736 8.25651C11.1736 7.46536 10.5322 6.82401 9.74109 6.82401C8.94995 6.82401 8.30859 7.46536 8.30859 8.25651C8.30859 9.04765 8.94995 9.68901 9.74109 9.68901Z" fill="#FFCC4D"/>
<path d="M9.74196 6.71601C9.82696 6.71501 9.85796 6.66151 9.85796 6.59801C9.85796 6.51301 9.74196 5.85001 9.74196 5.85001C9.74196 5.85001 9.62396 6.51301 9.62396 6.59801C9.62396 6.66151 9.65596 6.71601 9.74196 6.71601ZM9.74196 9.80501C9.65596 9.80551 9.62396 9.85901 9.62396 9.92251C9.62396 10.008 9.74196 10.662 9.74196 10.662C9.74196 10.662 9.85796 10.0075 9.85796 9.92251C9.85846 9.85951 9.82696 9.80501 9.74196 9.80501ZM9.34146 9.74451C9.25896 9.72351 9.21546 9.76701 9.19896 9.82851C9.17696 9.91051 9.11746 10.5815 9.11746 10.5815C9.11746 10.5815 9.40296 9.97101 9.42496 9.88901C9.44196 9.82751 9.42446 9.76651 9.34146 9.74451ZM10.1415 6.76051C10.2245 6.78251 10.2695 6.73851 10.286 6.67751C10.308 6.59501 10.363 5.93251 10.363 5.93251C10.363 5.93251 10.082 6.53401 10.0595 6.61701C10.043 6.67801 10.059 6.73851 10.1415 6.76051ZM8.96996 9.58951C8.89546 9.54801 8.84196 9.57851 8.81046 9.63401C8.76796 9.70751 8.53696 10.34 8.53696 10.34C8.53696 10.34 8.97046 9.82451 9.01296 9.75101C9.04496 9.69551 9.04446 9.63251 8.96996 9.58951ZM10.5145 6.91401C10.589 6.95701 10.644 6.92601 10.6755 6.87101C10.7185 6.79701 10.943 6.17201 10.943 6.17201C10.943 6.17201 10.515 6.68051 10.472 6.75401C10.441 6.80901 10.441 6.87151 10.5145 6.91401ZM8.65096 9.34501C8.58996 9.28551 8.53046 9.30101 8.48546 9.34601C8.42546 9.40651 8.03846 9.95751 8.03846 9.95751C8.03846 9.95751 8.59096 9.57151 8.65096 9.51201C8.69596 9.46701 8.71196 9.40501 8.65096 9.34501ZM10.8355 7.16001C10.8965 7.22051 10.957 7.20501 11.002 7.16001C11.0625 7.10001 11.4415 6.55351 11.4415 6.55351C11.4415 6.55351 10.897 6.93451 10.837 6.99501C10.792 7.04001 10.7755 7.10001 10.8355 7.16001ZM8.40696 9.02551C8.36346 8.95251 8.30196 8.95251 8.24646 8.98401C8.17246 9.02651 7.65646 9.45851 7.65646 9.45851C7.65646 9.45851 8.28996 9.22951 8.36346 9.18701C8.41896 9.15501 8.44996 9.10001 8.40696 9.02551ZM11.082 7.48101C11.1255 7.55551 11.1885 7.55601 11.243 7.52451C11.317 7.48151 11.8245 7.05251 11.8245 7.05251C11.8245 7.05251 11.2 7.27901 11.126 7.32151C11.071 7.35351 11.04 7.40701 11.082 7.48101ZM8.25346 8.65401C8.23046 8.57201 8.17046 8.55601 8.10896 8.57201C8.02696 8.59401 7.41646 8.87801 7.41646 8.87801C7.41646 8.87801 8.08746 8.82051 8.16946 8.79851C8.23096 8.78151 8.27546 8.73701 8.25346 8.65401ZM11.2365 7.85401C11.2595 7.93701 11.3195 7.95401 11.381 7.93751C11.4635 7.91551 12.065 7.63251 12.065 7.63251C12.065 7.63251 11.403 7.68951 11.32 7.71151C11.259 7.72751 11.2145 7.77201 11.2365 7.85401ZM8.20096 8.25551C8.19996 8.17051 8.14646 8.13951 8.08296 8.13951C7.99796 8.13951 7.33496 8.25551 7.33496 8.25551C7.33496 8.25551 7.99796 8.37351 8.08296 8.37351C8.14646 8.37351 8.20096 8.34151 8.20096 8.25551ZM11.29 8.25551C11.2905 8.34151 11.344 8.37351 11.4075 8.37351C11.493 8.37351 12.147 8.25551 12.147 8.25551C12.147 8.25551 11.4925 8.13951 11.4075 8.13951C11.344 8.13901 11.29 8.17051 11.29 8.25551ZM8.25346 7.85701C8.27446 7.77451 8.23096 7.73101 8.16946 7.71451C8.08746 7.69251 7.41646 7.63301 7.41646 7.63301C7.41646 7.63301 8.02696 7.91851 8.10896 7.94051C8.17046 7.95701 8.23146 7.94001 8.25346 7.85701ZM11.237 8.65651C11.215 8.73951 11.259 8.78451 11.32 8.80101C11.4025 8.82301 12.065 8.87801 12.065 8.87801C12.065 8.87801 11.4635 8.59651 11.3805 8.57451C11.3195 8.55851 11.259 8.57401 11.237 8.65651ZM8.40746 7.48551C8.44896 7.41151 8.41846 7.35751 8.36296 7.32601C8.28946 7.28351 7.65696 7.05251 7.65696 7.05251C7.65696 7.05251 8.17246 7.48601 8.24596 7.52851C8.30146 7.56051 8.36446 7.55951 8.40746 7.48551ZM11.083 9.03001C11.04 9.10451 11.071 9.15951 11.126 9.19101C11.1995 9.23401 11.825 9.45851 11.825 9.45851C11.825 9.45851 11.3165 9.03101 11.243 8.98801C11.188 8.95651 11.1255 8.95651 11.083 9.03001ZM8.65196 7.16651C8.71146 7.10551 8.69596 7.04601 8.65096 7.00101C8.59046 6.94101 8.03946 6.55401 8.03946 6.55401C8.03946 6.55401 8.42546 7.10651 8.48496 7.16651C8.52996 7.21151 8.59146 7.22751 8.65196 7.16651ZM10.837 9.35101C10.7765 9.41201 10.792 9.47301 10.837 9.51751C10.897 9.57801 11.4435 9.95701 11.4435 9.95701C11.4435 9.95701 11.0625 9.41251 11.002 9.35201C10.957 9.30701 10.897 9.29051 10.837 9.35101ZM8.97196 6.92201C9.04446 6.87851 9.04496 6.81701 9.01346 6.76151C8.97096 6.68801 8.53896 6.17151 8.53896 6.17151C8.53896 6.17151 8.76796 6.80501 8.81046 6.87851C8.84196 6.93401 8.89746 6.96501 8.97196 6.92201ZM10.5165 9.59751C10.4425 9.64051 10.4415 9.70301 10.473 9.75801C10.516 9.83201 10.945 10.3395 10.945 10.3395C10.945 10.3395 10.7185 9.71451 10.676 9.64051C10.644 9.58601 10.59 9.55451 10.5165 9.59751ZM9.34296 6.76851C9.42496 6.74551 9.44096 6.68551 9.42496 6.62401C9.40296 6.54201 9.11896 5.93151 9.11896 5.93151C9.11896 5.93151 9.17646 6.60251 9.19846 6.68451C9.21496 6.74601 9.25996 6.79051 9.34296 6.76851ZM10.143 9.75201C10.06 9.77501 10.043 9.83501 10.0595 9.89651C10.0815 9.97901 10.3645 10.5805 10.3645 10.5805C10.3645 10.5805 10.3075 9.91801 10.2855 9.83601C10.2695 9.77451 10.225 9.73001 10.143 9.75201Z" fill="#FFCC4D"/>
<path d="M11.1465 11.8225L11.128 11.8305L11.1075 11.8335L11.092 11.8365L11.0635 11.8305L11.051 11.8255L11.0395 11.82L11.026 11.8115L11.0035 11.7955L10.983 11.779L10.9715 11.771L10.957 11.765L10.947 11.7625H10.9325L10.876 11.88L10.8645 11.8965L10.8535 11.91L10.842 11.9185L10.832 11.927L10.8175 11.9325H10.804L10.7915 11.927L10.774 11.9185L10.769 11.91L10.763 11.9015L10.757 11.8905L10.751 11.8775L10.743 11.836L10.7265 11.8495L10.711 11.869L10.68 11.916L10.6615 11.9405L10.642 11.9595L10.6315 11.971L10.618 11.9795L10.6045 11.9855L10.588 11.9905H10.58L10.5655 11.9935L10.552 11.9905L10.5415 11.9855L10.5095 11.947L10.4735 11.9085L10.449 11.947L10.4205 11.9795L10.407 11.993L10.3945 12.0065L10.381 12.0175L10.3555 12.0315L10.342 12.0345H10.3285L10.317 12.0315L10.306 12.0255L10.298 12.017L10.2875 12.004C10.2806 11.9837 10.2731 11.9635 10.265 11.9435L10.262 11.9295L10.257 11.919L10.251 11.9135H10.245L10.171 12.0345L10.1605 12.045L10.141 12.0535L10.098 12.064H10.0725L10.053 12.0585L10.047 12.0555L10.039 12.047L10.037 12.042V12.031L10.047 11.91L10.039 11.913L10.0175 11.9235C9.99786 11.944 9.97869 11.965 9.96005 11.9865L9.93555 12.017L9.90505 12.0425L9.87655 12.064L9.86055 12.073L9.82755 12.078L9.81405 12.075L9.80805 12.073L9.80255 12.067L9.79955 12.0585V12.05L9.80255 12.015L9.81105 11.9595L9.80555 11.927L9.79405 11.908L9.77755 11.9325L9.75055 11.968C9.72806 11.9925 9.70505 12.0165 9.68155 12.04C9.6684 12.0487 9.65556 12.0579 9.64305 12.0675L9.61305 12.078L9.60705 12.075H9.59855L9.59255 12.07L9.59055 12.067L9.58455 12.0585L9.58255 12.05V12.0395L9.57955 12.0255L9.58255 11.9215C9.53255 11.9555 9.48205 11.9885 9.43105 12.02L9.41205 12.0285L9.39055 12.0395C9.37005 12.0445 9.35005 12.0495 9.33005 12.0555H9.31005L9.29155 12.053L9.27455 12.047L9.28305 12.025L9.29955 11.9865L9.31005 11.9705L9.32205 11.954L9.33255 11.9375L9.36055 11.91L9.39105 11.8885L9.42605 11.866L9.46205 11.8495L9.50355 11.836L9.54455 11.8255L9.63805 11.809L9.68455 11.803C9.82255 11.795 9.96105 11.794 10.099 11.795L10.2505 11.7865L10.2975 11.781L10.3845 11.7645L10.4265 11.753L10.4655 11.737L10.5015 11.7205C10.5205 11.7055 10.54 11.6905 10.56 11.6765L10.5865 11.6455L10.558 11.591L10.5805 11.588L10.602 11.583L10.6245 11.572L10.643 11.558L10.651 11.553L10.66 11.5445L10.666 11.5335L10.672 11.5255L10.674 11.5145V11.4955L10.668 11.4845L10.715 11.476L10.765 11.4705L10.8175 11.4675H10.872C10.9485 11.4705 11.0245 11.475 11.1005 11.481C11.2155 11.495 11.331 11.506 11.4465 11.517L11.55 11.5225V11.5605L11.548 11.5775L11.542 11.5935L11.537 11.61L11.531 11.6235L11.523 11.6345C11.5135 11.6455 11.503 11.6565 11.4925 11.667L11.468 11.683L11.4415 11.694L11.415 11.7L11.3845 11.7055L11.326 11.7L11.2955 11.6915L11.269 11.6775L11.2405 11.664L11.219 11.6445L11.1975 11.623V11.67C11.1935 11.7005 11.1885 11.7305 11.184 11.761L11.1735 11.7895L11.1675 11.801L11.1595 11.809L11.1535 11.8175L11.1465 11.8225ZM8.93755 11.564L9.00005 11.5915C9.01254 11.5811 9.02538 11.5711 9.03855 11.5615L9.06305 11.5485L9.08505 11.5345L9.16755 11.5015L9.23855 11.4685L9.27455 11.455L9.33555 11.4225L9.36005 11.4055C9.42205 11.365 9.48455 11.325 9.54705 11.2855L9.60155 11.247L9.64305 11.214C9.68405 11.177 9.72405 11.1395 9.76405 11.1015L9.78055 11.0905L9.79955 11.0795C9.8223 11.068 9.84531 11.057 9.86855 11.0465L9.91505 11.0305C10.008 11.005 10.1025 10.985 10.1975 10.97C10.2945 10.9585 10.3915 10.9455 10.4885 10.9345L10.6175 10.9125C10.6495 10.9035 10.6815 10.8955 10.714 10.888L10.747 10.8465L10.8 10.789L10.836 10.7535L10.876 10.72L10.923 10.6845L10.9775 10.6485L11.0605 10.5995C11.12 10.5695 11.179 10.5395 11.238 10.5085C11.343 10.4595 11.4465 10.4075 11.5495 10.3545L11.5985 10.3215L11.612 10.28L11.6315 10.2395L11.656 10.198L11.7195 10.113C11.7485 10.082 11.7765 10.051 11.8045 10.019C11.8385 9.98601 11.8735 9.95401 11.909 9.92301L11.962 9.87951L11.9885 9.86001L12.017 9.84101C12.037 9.82951 12.057 9.81851 12.0775 9.80801L12.108 9.79401L12.1375 9.78351L12.202 9.76651L12.234 9.76451L12.2645 9.76151L12.2965 9.76451L12.327 9.76951L12.325 9.80251L12.317 9.83501L12.2925 9.90401L12.272 9.93951L12.2475 9.97551L12.2175 10.0135L12.1815 10.052L12.21 10.049L12.2345 10.0435L12.254 10.0375L12.2725 10.0295L12.3085 10.0185L12.36 10.013L12.363 10.0325V10.0515L12.36 10.0705L12.355 10.087L12.347 10.1035L12.3355 10.12L12.325 10.133L12.3115 10.147C12.2738 10.1835 12.2353 10.2191 12.196 10.254L12.2285 10.257C12.2525 10.2645 12.2765 10.272 12.301 10.2785L12.3275 10.2845L12.2955 10.3095C12.2702 10.3265 12.2445 10.343 12.2185 10.359L12.1305 10.4085L12.0865 10.436L12.0425 10.4665L12.0015 10.4995L12.02 10.502L12.0455 10.513L12.0565 10.516L12.067 10.5215L12.076 10.524L12.084 10.5215L12.0295 10.552C11.9955 10.568 11.9616 10.5845 11.928 10.6015L11.886 10.6265L11.878 10.635L11.873 10.6435L11.867 10.6515L11.869 10.6625L11.875 10.671L11.8855 10.679L11.8955 10.688L11.8915 10.6985L11.8855 10.7075L11.875 10.7155L11.865 10.724L11.8385 10.737L11.8065 10.751L11.744 10.773L11.705 10.7925L11.7595 10.847L11.74 10.866L11.7215 10.88L11.705 10.8885L11.6855 10.8965L11.6475 10.902H11.5935L11.5995 10.927L11.6075 10.9515L11.619 11.007C11.585 11.0335 11.5501 11.059 11.5145 11.0835L11.451 11.1245L11.3805 11.1655L11.3385 11.185L11.2975 11.204C11.2513 11.222 11.2044 11.2385 11.157 11.2535L11.0505 11.276L10.992 11.2845C11.0555 11.2865 11.119 11.2875 11.1825 11.287L11.3385 11.2705L11.407 11.257L11.4675 11.2405C11.5075 11.227 11.5465 11.212 11.5855 11.1965L11.6615 11.1615L11.7365 11.12L11.807 11.0755L11.882 11.032L11.837 11.01L11.794 10.9965L11.7735 10.987C11.758 10.9795 11.7425 10.972 11.7265 10.9655L11.701 10.9515L11.7225 10.9355L11.749 10.9245L11.7775 10.914C11.8105 10.906 11.844 10.8985 11.877 10.8915C11.92 10.887 11.963 10.8815 12.006 10.8755L12.0605 10.87L12.1025 10.8595L12.1135 10.8535L12.1215 10.845L12.1195 10.842L12.1135 10.8365L12.1055 10.8335L12.095 10.8285L12.0645 10.8225L12.0255 10.817L11.9875 10.814L11.9495 10.8085L11.9155 10.8L11.895 10.7915L12.1635 10.7315L12.2105 10.7175C12.231 10.71 12.251 10.7015 12.271 10.693L12.2975 10.676L12.309 10.6655L12.306 10.663L12.301 10.657L12.2755 10.6515L12.2405 10.6485H12.1985C12.17 10.6465 12.142 10.6445 12.1135 10.6435L12.0785 10.6375L12.056 10.632L12.095 10.616C12.153 10.598 12.212 10.5815 12.271 10.566C12.3045 10.5545 12.3385 10.543 12.3725 10.533L12.4245 10.511L12.449 10.4975L12.4715 10.484L12.4795 10.4755L12.488 10.4645L12.496 10.4565L12.499 10.448L12.496 10.4395L12.488 10.4335L12.4795 10.4315H12.4035L12.3675 10.4335H12.3185L12.304 10.4315L12.2945 10.4255L12.2825 10.42C12.3825 10.354 12.4835 10.2885 12.585 10.2245L12.664 10.1695C12.6853 10.1519 12.7062 10.1337 12.7265 10.115L12.751 10.0875L12.7735 10.06L12.79 10.03L12.8035 10L12.8115 9.96651V9.93101H12.793L12.7735 9.93401L12.7305 9.95001C12.6925 9.97397 12.6538 9.99697 12.6145 10.019L12.593 10.033L12.5675 10.0435L12.543 10.052L12.5205 10.0575L12.499 10.0605H12.4735L12.452 10.052L12.5185 10.0025C12.572 9.95701 12.625 9.91101 12.6775 9.86501C12.7356 9.80956 12.7923 9.75271 12.8475 9.69451L12.9265 9.60651C12.95 9.57551 12.974 9.54551 12.9985 9.51551C13.018 9.48751 13.0375 9.45901 13.056 9.43051L13.062 9.42001L13.064 9.41151L13.062 9.40001L13.059 9.39201L13.056 9.38301L13.048 9.37751L13.0395 9.36901L13.0315 9.36601L13.021 9.36101L13.009 9.35801H12.9875L12.977 9.36101L12.9625 9.36301L12.9545 9.37201L12.943 9.38051C12.887 9.43651 12.8315 9.49351 12.777 9.55101L12.7105 9.61401C12.6669 9.65207 12.6229 9.68974 12.5785 9.72701C12.5577 9.74114 12.5365 9.75481 12.515 9.76801L12.4545 9.79851L12.473 9.78201C12.493 9.76301 12.5125 9.74401 12.5315 9.72451C12.602 9.64351 12.6695 9.55951 12.7345 9.47451L12.8615 9.29601L12.8955 9.23601L12.9295 9.18101L12.957 9.13101L12.9785 9.08401L12.992 9.04601L12.995 9.03251V9.01051L12.992 9.00201L12.982 8.98551L12.976 8.98001L12.967 8.97751L12.9515 8.96851L12.931 8.96301H12.8935L12.883 8.96601L12.875 8.96851L12.8635 8.97451L12.8555 8.98251L12.833 9.00201C12.8084 9.03169 12.7845 9.06203 12.7615 9.09301C12.7065 9.17901 12.6485 9.26301 12.5885 9.34551L12.519 9.42801L12.484 9.46401L12.446 9.49701L12.495 9.40551L12.572 9.24401L12.622 9.12601L12.6435 9.06551L12.6815 8.94151C12.691 8.90151 12.6995 8.86151 12.707 8.82101C12.7105 8.78351 12.7135 8.74601 12.716 8.70801L12.712 8.68051L12.71 8.65601L12.707 8.63051L12.699 8.59851L12.693 8.58951L12.6795 8.57601L12.661 8.56801L12.6405 8.56201H12.622L12.6045 8.56501L12.5995 8.56801L12.5915 8.57001L12.5885 8.57601C12.539 8.73201 12.5015 8.89101 12.4585 9.04851C12.4425 9.09251 12.4265 9.13651 12.4095 9.18051L12.3685 9.26001L12.343 9.29551L12.3595 9.21651C12.3675 9.17051 12.3745 9.12501 12.381 9.07901L12.3925 8.96601L12.3955 8.91901C12.394 8.89514 12.392 8.8713 12.3895 8.84751L12.3845 8.82001L12.3765 8.79801L12.365 8.78151L12.359 8.77601L12.3425 8.77051L12.3345 8.76751H12.3255L12.3175 8.77051L12.295 8.77601L12.2735 8.78701C12.2565 8.87201 12.236 8.95651 12.213 9.04001C12.1803 9.14534 12.1419 9.24882 12.098 9.35001C12.0684 9.4122 12.0371 9.47355 12.004 9.53401L11.9435 9.63851L11.878 9.73701C11.8341 9.79851 11.7886 9.85886 11.7415 9.91801C11.6955 9.97001 11.6485 10.021 11.601 10.072C11.5515 10.1205 11.501 10.1685 11.4495 10.2155C11.3965 10.2595 11.343 10.302 11.2885 10.344C11.2221 10.3921 11.154 10.4379 11.0845 10.4815L10.9635 10.5525L10.771 10.641L10.573 10.712L10.409 10.762L10.239 10.8L10.154 10.814L9.98005 10.836L9.89205 10.8415L9.88355 10.8445L9.87505 10.847L9.85855 10.856L9.84005 10.869C9.81852 10.8878 9.79735 10.9069 9.77655 10.9265L9.73255 10.971L9.57305 11.149L9.51255 11.2095L9.44155 11.264L9.41355 11.283L9.38605 11.3L9.32605 11.3275C9.23305 11.3655 9.13855 11.4 9.04505 11.4375L9.02055 11.451L8.99855 11.4625L8.98255 11.473L8.95205 11.5035L8.94355 11.517L8.93755 11.5305L8.93555 11.55V11.564" fill="#FFCC4D"/>
<path d="M9.94447 11.6875L9.99047 11.6935L10.013 11.702L10.018 11.7045V11.7075H10.013L10.007 11.71L9.96297 11.7185H9.92797L9.81297 11.71L9.52147 11.7045C9.44447 11.7055 9.36747 11.7075 9.29047 11.71C9.22247 11.715 9.15497 11.7205 9.08697 11.7265L9.03447 11.735L8.98797 11.7455C8.97697 11.7495 8.96647 11.7535 8.95547 11.7565L8.94147 11.7625L8.93047 11.771L8.93547 11.743L8.94747 11.715L8.90897 11.726L8.87597 11.7425L8.86297 11.751L8.85147 11.762L8.84297 11.775L8.84097 11.789L8.83297 11.77L8.82697 11.753C8.8255 11.7411 8.8235 11.7292 8.82097 11.7175C8.82397 11.703 8.82697 11.6885 8.82897 11.674L8.83797 11.66L8.84297 11.649L8.85447 11.636L8.87647 11.614L8.90647 11.5945L8.94047 11.5755C8.95839 11.586 8.97753 11.5942 8.99747 11.6C9.01714 11.6018 9.03697 11.5999 9.05597 11.5945C9.08647 11.6215 9.16547 11.616 9.17647 11.567C9.18073 11.5489 9.18073 11.5301 9.17647 11.512L9.20947 11.5095L9.24797 11.5035L9.33297 11.4815L9.37747 11.473L9.41847 11.4625L9.45697 11.457L9.48947 11.454L9.47597 11.4655L9.40447 11.52L9.37747 11.539L9.41247 11.548L9.44297 11.5535L9.37797 11.6275L9.36097 11.6495L9.38247 11.658L9.40447 11.664L9.42947 11.6695H9.47897L9.52797 11.6585L9.54747 11.647L9.56997 11.6585L9.59197 11.667C9.60597 11.671 9.62047 11.675 9.63497 11.678C9.66897 11.6815 9.70297 11.6855 9.73747 11.6885H9.94447M9.69397 10.8525L9.66947 10.902L9.64147 10.9655C9.62708 10.9914 9.61357 11.0177 9.60097 11.0445L9.58697 11.0585L9.55447 11.031L9.51847 11.006L9.47997 10.9865L9.43947 10.9705L9.35097 10.948L9.30747 10.94C9.2599 10.9345 9.21223 10.93 9.16447 10.9265C9.10122 10.9255 9.03802 10.9225 8.97497 10.9175L8.88697 10.907L8.83747 10.8985L8.79097 10.888L8.74197 10.871L8.70047 10.8495L8.66997 10.8295L8.60697 10.783C8.51497 10.6965 8.42397 10.609 8.32947 10.5245L8.27497 10.4865L8.24997 10.4755L8.22397 10.4675L8.17747 10.457C8.15031 10.4473 8.12298 10.4381 8.09547 10.4295C8.06987 10.4172 8.04403 10.4053 8.01797 10.394C7.97263 10.3659 7.92874 10.3355 7.88647 10.303L7.85897 10.2775L7.80447 10.223L7.75197 10.1655C7.66547 10.06 7.58397 9.95101 7.49947 9.84401C7.45906 9.80111 7.41789 9.75893 7.37597 9.71751L7.34047 9.68501L7.30447 9.65501L7.22547 9.59751L7.21747 9.60001L7.20847 9.60851L7.19997 9.61951C7.19497 9.63201 7.19097 9.64501 7.18697 9.65801L7.18397 9.66901L7.16397 9.66001L7.14747 9.65151L7.12747 9.64301L7.11097 9.63751H7.07547L7.05597 9.64301L7.03697 9.65151C7.05197 9.67051 7.06647 9.68951 7.08047 9.70901L7.10497 9.74751L7.14947 9.83251L7.16547 9.87401L7.17147 9.89601L7.17747 9.91251L7.17997 9.93151V9.94751H7.03197L7.05347 9.98051C7.06997 10.003 7.08747 10.025 7.10497 10.0465L7.19597 10.1375L7.22647 10.162L7.25447 10.1815C7.23068 10.184 7.20684 10.186 7.18297 10.1875L7.11097 10.1955L7.13547 10.218C7.15697 10.233 7.17797 10.2485 7.19897 10.2645L7.23447 10.289L7.27047 10.311L7.30597 10.3305L7.33897 10.3415L7.36947 10.3495L7.39397 10.355L7.40197 10.358L7.40797 10.364L7.40997 10.3665V10.377L7.40197 10.3995L7.39997 10.4155L7.39647 10.4265V10.4345L7.39997 10.4485L7.40197 10.4595L7.40797 10.4645L7.41597 10.4705L7.42647 10.476L7.44047 10.479L7.46847 10.49L7.48197 10.495L7.49297 10.5035L7.49547 10.5065V10.512L7.49297 10.515L7.47097 10.531L7.45997 10.542L7.44897 10.5555V10.567L7.44647 10.578L7.45197 10.6075L7.54797 10.6405L7.56997 10.6455L7.59197 10.6545L7.60847 10.663L7.62247 10.6715L7.53147 10.743L7.55597 10.765L7.58647 10.7815L7.62497 10.8005C7.65247 10.8105 7.67997 10.8195 7.70797 10.8285L7.74897 10.8365L7.78497 10.845H7.81747L7.78697 10.867L7.74847 10.8915L7.70747 10.914L7.67697 10.936L7.70447 10.955C7.78797 10.998 7.87347 11.038 7.96047 11.0735C8.11247 11.1355 8.26797 11.1895 8.42447 11.238C8.45947 11.2465 8.49397 11.2555 8.52847 11.2655L8.57247 11.274L8.48397 11.2655C8.42896 11.2584 8.37411 11.2501 8.31947 11.2405L8.24247 11.224L8.09097 11.1805L8.01997 11.1555C7.82997 11.0815 7.64447 10.9965 7.45397 10.9245L7.46797 10.9165L7.50647 10.9025L7.53097 10.897C7.56447 10.887 7.59697 10.876 7.62997 10.864C7.5645 10.8541 7.49931 10.8424 7.43447 10.829C7.40087 10.8181 7.36703 10.8079 7.33297 10.7985L7.31347 10.79L7.29697 10.7815L7.28347 10.7725L7.27447 10.7645V10.762L7.27747 10.759L7.28597 10.756L7.29397 10.7505L7.31597 10.742L7.41197 10.714L7.46747 10.695C7.38797 10.68 7.30797 10.6665 7.22797 10.654L7.18947 10.645L7.15897 10.6345L7.14797 10.6285L7.13747 10.62L7.12847 10.615L7.12297 10.606L7.13147 10.6005L7.15597 10.595C7.18147 10.591 7.20747 10.5865 7.23297 10.5815L7.27697 10.576C7.30197 10.569 7.32647 10.5615 7.35097 10.5535L7.36247 10.5455L7.37347 10.5365L7.32997 10.52L7.30197 10.515L7.27447 10.509L7.14847 10.4925L7.11547 10.4845L7.08497 10.4785L7.02447 10.457L6.99647 10.443L6.97397 10.427L6.95197 10.4075L6.93547 10.383L6.94147 10.38L6.95197 10.377H6.96597L6.98797 10.38L7.09247 10.3855L7.15347 10.3915H7.22997L7.25147 10.3885L7.26847 10.383L7.27947 10.377C7.22774 10.3559 7.1764 10.3339 7.12547 10.311C7.09176 10.2939 7.05776 10.2774 7.02347 10.2615L6.91947 10.207L6.86997 10.1765C6.83948 10.155 6.80931 10.133 6.77947 10.1105L6.74097 10.0775L6.72397 10.0585L6.70697 10.042L6.69647 10.0255L6.68497 10.006L6.67397 9.99001L6.66797 9.97101L6.66347 9.93551H6.68197L6.70397 9.93801L6.72597 9.94701L6.74797 9.95501L6.79147 9.98251L6.84097 10.01L6.86297 10.024L6.88747 10.037L6.91197 10.048L6.93397 10.0565L6.95847 10.0625L6.98047 10.065H7.00547L7.02697 10.0565L6.96197 10.0065C6.90812 9.96182 6.85494 9.91631 6.80247 9.87001C6.71545 9.78715 6.63188 9.70075 6.55197 9.61101L6.51697 9.56451L6.48097 9.52051C6.46123 9.49228 6.4419 9.46378 6.42297 9.43501L6.41797 9.42401V9.40501L6.42047 9.39651L6.42297 9.38851L6.43147 9.38301L6.43947 9.37451L6.44847 9.36851L6.45897 9.36551L6.46997 9.36351H6.49197L6.50547 9.36551L6.51747 9.36851L6.52797 9.37701C6.58747 9.43601 6.64597 9.49551 6.70347 9.55601C6.76697 9.61701 6.83297 9.67601 6.90147 9.73201L6.96447 9.77251L6.99697 9.78951L7.02747 9.80001L7.00597 9.78651L6.94847 9.72901C6.87797 9.64801 6.81097 9.56401 6.74497 9.47901C6.7159 9.43908 6.6874 9.39874 6.65947 9.35801C6.63456 9.31819 6.60889 9.27885 6.58247 9.24001C6.56153 9.20563 6.54135 9.17079 6.52197 9.13551C6.51082 9.10697 6.49915 9.07863 6.48697 9.05051L6.48347 9.03701V9.01451L6.48697 9.00651L6.49747 8.99001L6.50347 8.98401L6.51197 8.97901L6.54747 8.96751H6.58597L6.59697 8.97001L6.60497 8.97301L6.61597 8.97901L6.64647 9.00651L6.71797 9.09751C6.77397 9.18351 6.83297 9.26751 6.89397 9.35001L6.95897 9.43251L6.99497 9.46801L7.03347 9.50101C6.98967 9.41792 6.94766 9.3339 6.90747 9.24901C6.89046 9.20989 6.87395 9.17056 6.85797 9.13101L6.83597 9.07051C6.82435 9.02881 6.81151 8.98746 6.79747 8.94651L6.78397 8.88601L6.77397 8.82451L6.76797 8.76701L6.76547 8.71251L6.76797 8.68501L6.77147 8.66001L6.77397 8.63501L6.77947 8.61051L6.78497 8.60151L6.78797 8.59351L6.79597 8.58451L6.80147 8.57951L6.82047 8.57101L6.83997 8.56601H6.85897L6.87547 8.56901L6.88347 8.57101L6.88947 8.57401L6.89247 8.58001L6.89547 8.58801C6.94247 8.74151 6.98097 8.89751 7.02147 9.05301C7.03747 9.09651 7.05397 9.13951 7.07147 9.18201L7.09047 9.22301L7.11247 9.26151L7.13697 9.30001L7.12097 9.22001C7.11469 9.17435 7.10735 9.12883 7.09897 9.08351C7.09348 9.03043 7.08898 8.97726 7.08547 8.92401L7.09097 8.85251L7.09647 8.82451L7.10497 8.80301L7.11597 8.78651L7.12147 8.78051L7.12947 8.77501L7.13747 8.77251H7.16247L7.18497 8.78051L7.20647 8.79151L7.24497 8.96451C7.25897 9.01701 7.27447 9.06951 7.29147 9.12101C7.31947 9.19951 7.34997 9.27751 7.38247 9.35451L7.42097 9.43401L7.47597 9.53901L7.53597 9.64301L7.60247 9.74201L7.67347 9.84051L7.73997 9.92301C7.78597 9.97501 7.83247 10.0265 7.87997 10.077C7.92947 10.1255 7.97997 10.173 8.03147 10.2195L8.11097 10.286C8.18397 10.343 8.25897 10.397 8.33647 10.448C8.39697 10.484 8.45847 10.519 8.52047 10.5525L8.70947 10.6435C8.80547 10.6815 8.90247 10.7165 9.00047 10.7475C9.09647 10.773 9.19397 10.795 9.29197 10.8135C9.42347 10.8345 9.55847 10.847 9.69397 10.8525Z" fill="#FFCC4D"/>
<path d="M1.95191 14.261C1.95191 14.261 1.83341 14.3595 1.79341 14.31C1.72891 14.23 1.99191 13.8305 1.99191 13.6895C1.99191 13.459 1.83741 13.395 1.64741 13.3625C1.51941 13.3405 1.31191 13.372 1.31191 13.372C1.35091 13.4245 1.37641 13.441 1.44241 13.444C1.39694 13.4679 1.35901 13.504 1.33288 13.5482C1.30674 13.5925 1.29342 13.6431 1.29441 13.6945C1.29441 13.8925 1.37641 13.9745 1.37641 14.199C1.37641 14.3235 1.27441 14.4815 1.27441 14.4815C1.45441 14.4635 1.54441 14.297 1.49341 14.163C1.50719 14.1604 1.52139 14.1612 1.5348 14.1653C1.5482 14.1694 1.56042 14.1767 1.57041 14.1865C1.58341 14.15 1.56291 14.1065 1.53491 14.07C1.55741 14.0585 1.57391 14.0655 1.60941 14.0725C1.60591 14.0345 1.58291 13.9945 1.52741 13.9565C1.68941 13.998 1.78891 13.8855 1.78891 13.7675C1.78891 13.6775 1.72641 13.6135 1.66491 13.6135C1.64162 13.6142 1.61897 13.6213 1.59941 13.634C1.58791 13.61 1.59391 13.577 1.60541 13.5525C1.56091 13.564 1.53241 13.5905 1.55291 13.6465C1.53766 13.6467 1.52263 13.6502 1.50877 13.6565C1.49492 13.6629 1.48253 13.6721 1.47241 13.6835C1.48198 13.6955 1.49428 13.705 1.50829 13.7113C1.52229 13.7175 1.5376 13.7204 1.55291 13.7195C1.52791 13.7715 1.55591 13.801 1.59641 13.824C1.59641 13.824 1.57041 13.7195 1.63691 13.7195C1.66691 13.7195 1.69391 13.73 1.69391 13.7735C1.69391 13.811 1.66041 13.864 1.58341 13.861C1.50591 13.8575 1.44341 13.8075 1.44341 13.685C1.44341 13.5705 1.53491 13.514 1.65541 13.5105C1.76441 13.507 1.84641 13.566 1.84641 13.6785C1.84641 13.8275 1.63041 14.1685 1.63041 14.3015C1.63041 14.4015 1.71991 14.457 1.80791 14.457C1.92191 14.457 2.01791 14.344 2.01791 14.344L1.95191 14.261ZM1.92691 11.56C1.92691 11.311 2.15091 11.1825 2.32691 11.1825C2.56391 11.1825 2.69041 11.3245 2.69041 11.5095C2.69041 11.6155 2.67091 11.6815 2.62241 11.782L2.07891 12.9105C2.05902 12.9579 2.0503 13.0092 2.05341 13.0605C2.05341 13.1615 2.15191 13.2445 2.25491 13.247C2.34841 13.2495 2.45091 13.1595 2.45091 13.057C2.45091 12.9325 2.38691 12.8775 2.32041 12.8775C2.23891 12.8775 2.20641 12.9105 2.20641 12.968C2.20641 13.0085 2.22591 13.0255 2.25341 13.0255C2.32341 13.0255 2.30391 12.9315 2.30391 12.9315C2.31323 12.9334 2.322 12.9374 2.32962 12.9431C2.33724 12.9488 2.34351 12.9561 2.34799 12.9645C2.35247 12.9729 2.35506 12.9822 2.35556 12.9917C2.35607 13.0012 2.35448 13.0107 2.35091 13.0195C2.3771 13.025 2.40079 13.0389 2.41841 13.059C2.40041 13.0782 2.37677 13.0911 2.35091 13.096C2.36741 13.15 2.34541 13.1765 2.29841 13.188C2.30652 13.1698 2.30879 13.1495 2.30491 13.13C2.23041 13.151 2.11641 13.118 2.11641 12.989C2.11641 12.861 2.20491 12.7535 2.37141 12.78C2.33141 12.762 2.31191 12.7235 2.30791 12.6795C2.33791 12.692 2.37141 12.6935 2.37141 12.6935C2.35191 12.6595 2.32491 12.63 2.32591 12.562C2.35691 12.5765 2.38541 12.602 2.42491 12.5855C2.36291 12.464 2.43891 12.297 2.63291 12.2565C2.56706 12.3281 2.52955 12.4212 2.52741 12.5185C2.52741 12.8085 2.60841 12.8565 2.60841 13.0575C2.60707 13.1044 2.59469 13.1503 2.57228 13.1914C2.54986 13.2326 2.51804 13.2679 2.47941 13.2945V13.291C2.53541 13.306 2.57191 13.3345 2.59291 13.372C2.46341 13.4085 2.27491 13.408 2.17441 13.3685C2.12886 13.3619 2.08534 13.3452 2.04703 13.3197C2.00872 13.2942 1.97657 13.2605 1.95291 13.221C1.92847 13.1647 1.91586 13.1039 1.91586 13.0425C1.91586 12.9811 1.92847 12.9203 1.95291 12.864C2.02991 12.7035 2.39291 11.934 2.50591 11.6915C2.53084 11.64 2.54399 11.5837 2.54441 11.5265C2.54441 11.379 2.40891 11.327 2.33191 11.327C2.23941 11.327 2.14541 11.398 2.14541 11.485C2.14541 11.541 2.17591 11.574 2.21891 11.574C2.32341 11.574 2.31691 11.4855 2.29591 11.4295C2.36041 11.4595 2.39841 11.5105 2.38791 11.5655C2.42491 11.5705 2.45991 11.588 2.49191 11.624C2.46641 11.657 2.43541 11.681 2.38791 11.6815C2.40891 11.7665 2.35191 11.8025 2.29591 11.822C2.31341 11.76 2.32491 11.6875 2.21891 11.6875C2.14141 11.6875 2.08041 11.674 2.04491 11.6235C2.04241 11.691 2.03591 11.956 2.03591 11.956C2.03191 12.056 2.16941 12.053 2.25691 12.0235C2.22341 12.1385 2.15591 12.201 1.99841 12.185C2.02254 12.1943 2.04314 12.2109 2.05731 12.2325C2.07148 12.2541 2.07851 12.2797 2.07741 12.3055C2.07741 12.3995 2.00141 12.503 1.95191 12.534L1.92691 11.56Z" fill="#FFCC4D"/>
<path d="M1.97639 11.56C1.97639 11.311 1.75239 11.1825 1.57639 11.1825C1.33939 11.1825 1.21289 11.3245 1.21289 11.5095C1.21289 11.6155 1.23239 11.6815 1.28089 11.782L1.82439 12.9105C1.84411 12.9579 1.85267 13.0092 1.84939 13.0605C1.84939 13.1615 1.75089 13.2445 1.64839 13.247C1.55439 13.2495 1.45239 13.1595 1.45239 13.057C1.45239 12.9325 1.51639 12.8775 1.58289 12.8775C1.66439 12.8775 1.69689 12.9105 1.69689 12.968C1.69689 13.0085 1.67739 13.0255 1.64989 13.0255C1.57989 13.0255 1.59939 12.9315 1.59939 12.9315C1.59008 12.9334 1.5813 12.9374 1.57368 12.9431C1.56607 12.9488 1.5598 12.9561 1.55532 12.9645C1.55083 12.9729 1.54825 12.9822 1.54774 12.9917C1.54724 13.0012 1.54882 13.0107 1.55239 13.0195C1.52621 13.025 1.50252 13.0389 1.48489 13.059C1.5029 13.0782 1.52654 13.0911 1.55239 13.096C1.53639 13.15 1.55839 13.1765 1.60539 13.1875C1.59729 13.1693 1.59502 13.149 1.59889 13.1295C1.67339 13.1505 1.78739 13.1175 1.78739 12.9885C1.78739 12.8605 1.69889 12.753 1.53289 12.7795C1.57239 12.7615 1.59239 12.723 1.59589 12.679C1.57573 12.6868 1.55448 12.6916 1.53289 12.693C1.55189 12.659 1.57889 12.6295 1.57789 12.5615C1.54689 12.576 1.51889 12.6015 1.47889 12.585C1.54089 12.4635 1.46489 12.2965 1.27089 12.256C1.33675 12.3276 1.37425 12.4207 1.37639 12.518C1.37639 12.808 1.29589 12.856 1.29589 13.057C1.29589 13.141 1.33939 13.2325 1.42489 13.294V13.2905C1.40135 13.2953 1.37909 13.305 1.35954 13.3189C1.33998 13.3329 1.32358 13.3508 1.31139 13.3715C1.44089 13.408 1.62889 13.4075 1.72989 13.368C1.77545 13.3614 1.81896 13.3447 1.85727 13.3192C1.89559 13.2937 1.92774 13.26 1.95139 13.2205C1.97583 13.1641 1.98844 13.1034 1.98844 13.042C1.98844 12.9806 1.97583 12.9198 1.95139 12.8635C1.87439 12.703 1.51139 11.9335 1.39839 11.691C1.37346 11.6395 1.36031 11.5832 1.35989 11.526C1.35989 11.3785 1.49539 11.3265 1.57239 11.3265C1.66489 11.3265 1.75889 11.3975 1.75889 11.4845C1.75889 11.5405 1.72839 11.5735 1.68539 11.5735C1.58089 11.5735 1.58739 11.485 1.60789 11.429C1.54339 11.459 1.50539 11.51 1.51589 11.565C1.47525 11.5711 1.43826 11.592 1.41189 11.6235C1.43739 11.6565 1.46839 11.6805 1.51589 11.681C1.49489 11.766 1.55189 11.802 1.60789 11.8215C1.59039 11.7595 1.57889 11.687 1.68539 11.687C1.76289 11.687 1.82389 11.6735 1.85939 11.623L1.86839 11.9555C1.87239 12.0555 1.73439 12.0525 1.64689 12.023C1.67989 12.1375 1.74789 12.2 1.90489 12.184C1.88077 12.1933 1.86017 12.2099 1.846 12.2315C1.83182 12.2531 1.82479 12.2787 1.82589 12.3045C1.82589 12.3985 1.90139 12.502 1.95139 12.533L1.97639 11.56ZM1.95189 14.261C1.95189 14.261 2.07039 14.3595 2.11039 14.31C2.17489 14.23 1.91189 13.8305 1.91189 13.6895C1.91189 13.459 2.06639 13.395 2.25639 13.3625C2.38439 13.3405 2.59239 13.372 2.59239 13.372C2.55289 13.4245 2.52789 13.441 2.46189 13.444C2.50733 13.4679 2.54522 13.5041 2.57135 13.5483C2.59748 13.5925 2.61082 13.6431 2.60989 13.6945C2.60989 13.8925 2.52789 13.9745 2.52789 14.199C2.52789 14.3235 2.62989 14.4815 2.62989 14.4815C2.44989 14.4635 2.35989 14.297 2.41089 14.163C2.39711 14.1605 2.38294 14.1613 2.36955 14.1654C2.35615 14.1695 2.34393 14.1767 2.33389 14.1865C2.32089 14.15 2.34189 14.1065 2.36939 14.07C2.34689 14.0585 2.33039 14.0655 2.29489 14.0725C2.29839 14.0345 2.32089 13.9945 2.37689 13.9565C2.21489 13.998 2.11539 13.8855 2.11539 13.7675C2.11539 13.6775 2.17789 13.6135 2.23939 13.6135C2.25939 13.6135 2.28839 13.622 2.30489 13.634C2.31639 13.61 2.31039 13.577 2.29839 13.5525C2.34339 13.564 2.37139 13.5905 2.35139 13.6465C2.36664 13.6468 2.38166 13.6502 2.39551 13.6566C2.40937 13.6629 2.42175 13.6721 2.43189 13.6835C2.42233 13.6955 2.41003 13.705 2.39602 13.7113C2.38201 13.7175 2.36671 13.7204 2.35139 13.7195C2.37639 13.7715 2.34839 13.801 2.30789 13.824C2.30789 13.824 2.33389 13.7195 2.26739 13.7195C2.23739 13.7195 2.21039 13.73 2.21039 13.7735C2.21039 13.811 2.24389 13.864 2.32089 13.861C2.39789 13.8575 2.46039 13.8075 2.46039 13.685C2.46039 13.5705 2.36889 13.514 2.24839 13.5105C2.13939 13.507 2.05739 13.566 2.05739 13.6785C2.05739 13.8275 2.27339 14.1685 2.27339 14.3015C2.27339 14.4015 2.18389 14.457 2.09589 14.457C1.98189 14.457 1.88589 14.344 1.88589 14.344L1.95189 14.261ZM1.92689 7.18849C1.92689 6.93849 2.15089 6.81049 2.32689 6.81049C2.56389 6.81049 2.69039 6.95249 2.69039 7.13799C2.69039 7.24349 2.67089 7.30949 2.62239 7.40999L2.07889 8.53899C2.05897 8.58618 2.05024 8.63735 2.05339 8.68849C2.05339 8.78999 2.15189 8.87249 2.25489 8.87549C2.34839 8.87749 2.45089 8.78749 2.45089 8.68549C2.45089 8.56149 2.38689 8.50599 2.32039 8.50599C2.23889 8.50599 2.20639 8.53949 2.20639 8.59699C2.20639 8.63649 2.22589 8.65399 2.25339 8.65399C2.32339 8.65399 2.30389 8.55999 2.30389 8.55999C2.31313 8.56188 2.32183 8.56577 2.3294 8.57139C2.33697 8.57701 2.34321 8.58422 2.3477 8.59252C2.35218 8.60081 2.35478 8.60999 2.35534 8.6194C2.35589 8.62881 2.35437 8.63822 2.35089 8.64699C2.3771 8.65273 2.40077 8.66675 2.41839 8.68699C2.40031 8.70616 2.37673 8.71926 2.35089 8.72449C2.36739 8.77849 2.34539 8.80449 2.29839 8.81599C2.30652 8.7978 2.3088 8.77753 2.30489 8.75799C2.23039 8.77899 2.11639 8.74599 2.11639 8.61699C2.11639 8.48949 2.20489 8.38199 2.37139 8.40849C2.33139 8.38949 2.31189 8.35099 2.30789 8.30799C2.33789 8.31999 2.37139 8.32099 2.37139 8.32099C2.35189 8.28699 2.32489 8.25749 2.32589 8.18999C2.35689 8.20399 2.38539 8.22999 2.42489 8.21349C2.36289 8.09149 2.43889 7.92399 2.63289 7.88449C2.56719 7.95618 2.52971 8.04927 2.52739 8.14649C2.52739 8.43599 2.60839 8.48449 2.60839 8.68599C2.60839 8.76999 2.56489 8.86099 2.47939 8.92299V8.91949C2.53439 8.93449 2.57039 8.96199 2.59189 8.99999C2.46239 9.03699 2.27389 9.03599 2.17339 8.99649C2.12787 8.98979 2.0844 8.97308 2.0461 8.94758C2.0078 8.92208 1.97563 8.8884 1.95189 8.84899C1.92745 8.79283 1.91483 8.73223 1.91483 8.67099C1.91483 8.60974 1.92745 8.54914 1.95189 8.49299C2.02889 8.33199 2.39189 7.56249 2.50489 7.31999C2.52955 7.26843 2.54269 7.21213 2.54339 7.15499C2.54339 7.00699 2.40789 6.95499 2.33089 6.95499C2.23839 6.95499 2.14439 7.02549 2.14439 7.11249C2.14439 7.16849 2.17489 7.20199 2.21789 7.20199C2.32239 7.20199 2.31589 7.11299 2.29489 7.05749C2.35939 7.08649 2.39739 7.13849 2.38689 7.19349C2.42389 7.19849 2.45889 7.21549 2.49089 7.25249C2.46539 7.28449 2.43439 7.30849 2.38689 7.30949C2.40789 7.39499 2.35089 7.43099 2.29489 7.45049C2.31239 7.38849 2.32389 7.31649 2.21789 7.31649C2.14039 7.31649 2.07939 7.30299 2.04389 7.25299C2.04139 7.31999 2.03489 7.58549 2.03489 7.58549C2.03089 7.68499 2.16839 7.68249 2.25589 7.65249C2.22339 7.76749 2.15589 7.82949 1.99839 7.81349C2.02255 7.82287 2.04317 7.83958 2.05734 7.86129C2.07151 7.88299 2.07852 7.90859 2.07739 7.93449C2.07739 8.02799 2.00139 8.13199 1.95189 8.16249L1.92689 7.18849Z" fill="#FFCC4D"/>
<path d="M1.97639 7.18849C1.97639 6.93849 1.75239 6.81049 1.57639 6.81049C1.33939 6.81049 1.21289 6.95249 1.21289 7.13799C1.21289 7.24349 1.23239 7.30949 1.28089 7.40999L1.82439 8.53899C1.84339 8.57849 1.84939 8.62299 1.84939 8.68849C1.84939 8.78999 1.75089 8.87249 1.64839 8.87549C1.55439 8.87749 1.45239 8.78749 1.45239 8.68549C1.45239 8.56149 1.51639 8.50599 1.58289 8.50599C1.66439 8.50599 1.69689 8.53949 1.69689 8.59699C1.69689 8.63649 1.67739 8.65399 1.64989 8.65399C1.57989 8.65399 1.59939 8.55999 1.59939 8.55999C1.59011 8.5618 1.58135 8.56564 1.57373 8.57124C1.56611 8.57684 1.55983 8.58406 1.55534 8.59238C1.55084 8.6007 1.54825 8.60991 1.54774 8.61935C1.54723 8.62879 1.54882 8.63823 1.55239 8.64699C1.52618 8.65273 1.50251 8.66675 1.48489 8.68699C1.50297 8.70616 1.52656 8.71926 1.55239 8.72449C1.53639 8.77849 1.55789 8.80449 1.60489 8.81599C1.59676 8.7978 1.59449 8.77753 1.59839 8.75799C1.67289 8.77899 1.78689 8.74599 1.78689 8.61699C1.78689 8.48949 1.69839 8.38199 1.53239 8.40849C1.57189 8.38949 1.59189 8.35099 1.59539 8.30799C1.56539 8.31999 1.53239 8.32099 1.53239 8.32099C1.55139 8.28699 1.57839 8.25749 1.57739 8.18999C1.54639 8.20399 1.51839 8.22999 1.47839 8.21349C1.54039 8.09149 1.46439 7.92399 1.27039 7.88449C1.33609 7.95618 1.37357 8.04927 1.37589 8.14649C1.37589 8.43599 1.29539 8.48449 1.29539 8.68599C1.29539 8.76999 1.33889 8.86099 1.42439 8.92299V8.91949C1.36889 8.93449 1.33239 8.96199 1.31189 8.99999C1.44139 9.03699 1.62939 9.03599 1.73039 8.99649C1.77591 8.98979 1.81939 8.97308 1.85768 8.94758C1.89598 8.92208 1.92816 8.8884 1.95189 8.84899C1.97634 8.79283 1.98895 8.73223 1.98895 8.67099C1.98895 8.60974 1.97634 8.54914 1.95189 8.49299C1.87489 8.33199 1.51189 7.56249 1.39889 7.31999C1.374 7.26869 1.36085 7.2125 1.36039 7.15549C1.36039 7.00749 1.49589 6.95549 1.57289 6.95549C1.66539 6.95549 1.75939 7.02599 1.75939 7.11299C1.75939 7.16899 1.72889 7.20249 1.68589 7.20249C1.58139 7.20249 1.58789 7.11349 1.60839 7.05799C1.54389 7.08699 1.50589 7.13899 1.51639 7.19399C1.47557 7.19996 1.43846 7.22101 1.41239 7.25299C1.43789 7.28499 1.46889 7.30899 1.51639 7.30999C1.49539 7.39549 1.55239 7.43149 1.60839 7.45099C1.59089 7.38899 1.57939 7.31699 1.68589 7.31699C1.76339 7.31699 1.82439 7.30349 1.85989 7.25349L1.86839 7.58499C1.87239 7.68449 1.73439 7.68199 1.64689 7.65199C1.67989 7.76699 1.74789 7.82899 1.90489 7.81349C1.88073 7.82287 1.86011 7.83958 1.84594 7.86129C1.83177 7.88299 1.82476 7.90859 1.82589 7.93449C1.82589 8.02799 1.90139 8.13199 1.95139 8.16249L1.97639 7.18849Z" fill="#FFCC4D"/>
<path d="M1.97644 6.4395C1.97644 6.689 1.75244 6.8175 1.57644 6.8175C1.33944 6.8175 1.21294 6.6755 1.21294 6.4895C1.21294 6.3845 1.23244 6.3185 1.28094 6.2175L1.82444 5.0885C1.84415 5.04125 1.85271 4.99009 1.84944 4.939C1.84944 4.838 1.75094 4.755 1.64844 4.7525C1.55444 4.7505 1.45244 4.84 1.45244 4.9425C1.45244 5.067 1.51644 5.122 1.58294 5.122C1.66444 5.122 1.69694 5.0885 1.69694 5.031C1.69694 4.991 1.67744 4.974 1.64994 4.974C1.57994 4.974 1.59944 5.068 1.59944 5.068C1.59014 5.06612 1.58137 5.06222 1.57375 5.05657C1.56614 5.05092 1.55986 5.04365 1.55537 5.0353C1.55088 5.02694 1.54829 5.0177 1.54779 5.00823C1.54728 4.99875 1.54887 4.98929 1.55244 4.9805C1.52611 4.97535 1.50232 4.96143 1.48494 4.941C1.50318 4.92214 1.52672 4.90924 1.55244 4.904C1.53644 4.85 1.55844 4.824 1.60544 4.8125C1.5973 4.83069 1.59503 4.85096 1.59894 4.8705C1.67344 4.8495 1.78744 4.8835 1.78744 5.0115C1.78744 5.139 1.69894 5.2465 1.53294 5.22C1.57244 5.239 1.59244 5.2775 1.59594 5.3205C1.57565 5.31324 1.55444 5.30886 1.53294 5.3075C1.55194 5.3415 1.57894 5.371 1.57794 5.4385C1.54694 5.4245 1.51894 5.3985 1.47894 5.415C1.54094 5.537 1.46494 5.7045 1.27094 5.7445C1.33663 5.6726 1.3741 5.57936 1.37644 5.482C1.37644 5.193 1.29594 5.144 1.29594 4.943C1.29594 4.859 1.33944 4.768 1.42494 4.706V4.7095C1.40146 4.70455 1.37927 4.69474 1.35981 4.6807C1.34035 4.66667 1.32404 4.64872 1.31194 4.628C1.44144 4.5915 1.62944 4.592 1.73044 4.632C1.77603 4.63866 1.81958 4.65539 1.85789 4.68099C1.89621 4.7066 1.92834 4.74042 1.95194 4.78C1.97641 4.83615 1.98904 4.89675 1.98904 4.958C1.98904 5.01925 1.97641 5.07985 1.95194 5.136C1.87494 5.297 1.51194 6.0665 1.39894 6.3085C1.374 6.35978 1.36085 6.41598 1.36044 6.473C1.36044 6.6215 1.49594 6.673 1.57294 6.673C1.66544 6.673 1.75944 6.6025 1.75944 6.515C1.75944 6.4595 1.72894 6.4255 1.68594 6.4255C1.58144 6.4255 1.58794 6.514 1.60844 6.57C1.54394 6.541 1.50594 6.489 1.51644 6.434C1.47567 6.42784 1.43863 6.40683 1.41244 6.375C1.43794 6.343 1.46894 6.3185 1.51644 6.318C1.49544 6.233 1.55244 6.1965 1.60844 6.1765C1.59094 6.239 1.57944 6.3115 1.68594 6.3115C1.76344 6.3115 1.82444 6.3245 1.85994 6.375L1.86894 6.042C1.87294 5.9425 1.73494 5.9455 1.64744 5.975C1.68044 5.86 1.74844 5.798 1.90544 5.8135C1.88127 5.80412 1.86066 5.7874 1.84649 5.7657C1.83232 5.74399 1.8253 5.7184 1.82644 5.6925C1.82644 5.599 1.90194 5.495 1.95194 5.4645L1.97644 6.4395ZM1.97644 10.8115C1.97644 11.061 1.75244 11.189 1.57644 11.189C1.33944 11.189 1.21294 11.0475 1.21294 10.862C1.21172 10.767 1.23515 10.6733 1.28094 10.59L1.82444 9.461C1.84415 9.41375 1.85271 9.36259 1.84944 9.3115C1.84944 9.21 1.75094 9.1275 1.64844 9.125C1.55444 9.1225 1.45244 9.2125 1.45244 9.3145C1.45244 9.4385 1.51644 9.494 1.58294 9.494C1.66444 9.494 1.69694 9.4605 1.69694 9.403C1.69694 9.3635 1.67744 9.3465 1.64994 9.3465C1.57994 9.3465 1.59944 9.4405 1.59944 9.4405C1.59018 9.43854 1.58147 9.43459 1.5739 9.42892C1.56633 9.42325 1.56009 9.416 1.55562 9.40766C1.55114 9.39933 1.54854 9.39012 1.54799 9.38068C1.54744 9.37124 1.54896 9.36179 1.55244 9.353C1.52606 9.34768 1.50227 9.33358 1.48494 9.313C1.50307 9.29398 1.52665 9.28105 1.55244 9.276C1.53644 9.2215 1.55794 9.1955 1.60494 9.184C1.5968 9.20219 1.59453 9.22246 1.59844 9.242C1.67294 9.221 1.78694 9.2545 1.78694 9.383C1.78694 9.5105 1.69844 9.6175 1.53244 9.5915C1.57194 9.611 1.59194 9.649 1.59544 9.6925C1.56544 9.681 1.53244 9.679 1.53244 9.679C1.55144 9.713 1.57844 9.743 1.57744 9.81C1.54644 9.796 1.51844 9.77 1.47844 9.7865C1.54044 9.908 1.46444 10.0765 1.27044 10.1155C1.33621 10.0439 1.37371 9.95074 1.37594 9.8535C1.37594 9.565 1.29544 9.5155 1.29544 9.3145C1.29544 9.23 1.33894 9.139 1.42444 9.0775V9.0805C1.36894 9.066 1.33244 9.0385 1.31194 9C1.44144 8.9635 1.62944 8.964 1.73044 9.004C1.77596 9.0107 1.81943 9.0274 1.85773 9.05291C1.89603 9.07841 1.9282 9.11208 1.95194 9.1515C1.97638 9.20766 1.989 9.26825 1.989 9.3295C1.989 9.39075 1.97638 9.45134 1.95194 9.5075C1.87494 9.6685 1.51194 10.438 1.39894 10.6805C1.37394 10.7318 1.36078 10.788 1.36044 10.845C1.36044 10.993 1.49594 11.0445 1.57294 11.0445C1.66544 11.0445 1.75944 10.974 1.75944 10.8865C1.75944 10.832 1.72894 10.798 1.68594 10.798C1.58144 10.798 1.58794 10.8865 1.60844 10.942C1.54394 10.913 1.50594 10.8605 1.51644 10.806C1.47564 10.8003 1.43849 10.7794 1.41244 10.7475C1.42429 10.7307 1.43981 10.7168 1.45782 10.7068C1.47584 10.6968 1.49588 10.6911 1.51644 10.69C1.49544 10.605 1.55244 10.5695 1.60844 10.5495C1.59094 10.612 1.57944 10.684 1.68594 10.684C1.76344 10.684 1.82444 10.697 1.85994 10.748L1.86894 10.415C1.87294 10.316 1.73494 10.3185 1.64744 10.348C1.68044 10.2335 1.74844 10.1715 1.90544 10.187C1.88127 10.1776 1.86066 10.1609 1.84649 10.1392C1.83232 10.1175 1.8253 10.0919 1.82644 10.066C1.82644 9.9725 1.90194 9.869 1.95194 9.838L1.97644 10.8115Z" fill="#FFCC4D"/>
<path d="M1.92724 10.8115C1.92724 11.061 2.15124 11.189 2.32724 11.189C2.56424 11.189 2.69074 11.0475 2.69074 10.862C2.69195 10.767 2.66853 10.6733 2.62274 10.59L2.07924 9.46099C2.05932 9.4138 2.05059 9.36263 2.05374 9.31149C2.05374 9.20999 2.15224 9.12749 2.25524 9.12499C2.34874 9.12249 2.45124 9.21249 2.45124 9.31449C2.45124 9.43849 2.38724 9.49399 2.32074 9.49399C2.23924 9.49399 2.20674 9.46049 2.20674 9.40299C2.20674 9.36349 2.22624 9.34649 2.25374 9.34649C2.32374 9.34649 2.30424 9.44049 2.30424 9.44049C2.31349 9.43854 2.32221 9.43459 2.32978 9.42891C2.33735 9.42324 2.34358 9.41599 2.34806 9.40766C2.35254 9.39933 2.35514 9.39012 2.35569 9.38068C2.35624 9.37123 2.35472 9.36179 2.35124 9.35299C2.37762 9.34767 2.40141 9.33357 2.41874 9.31299C2.40061 9.29397 2.37703 9.28105 2.35124 9.27599C2.36774 9.22149 2.34574 9.19549 2.29874 9.18399C2.30824 9.20499 2.30824 9.22399 2.30524 9.24199C2.23074 9.22099 2.11674 9.25449 2.11674 9.38299C2.11674 9.51049 2.20524 9.61749 2.37174 9.59149C2.33174 9.61099 2.31224 9.64899 2.30824 9.69249C2.33824 9.68099 2.37174 9.67899 2.37174 9.67899C2.35224 9.71299 2.32524 9.74299 2.32624 9.80999C2.35724 9.79599 2.38574 9.76999 2.42524 9.78649C2.36324 9.90799 2.43924 10.0765 2.63324 10.1155C2.56746 10.0438 2.52997 9.95073 2.52774 9.85349C2.52774 9.56499 2.60874 9.51549 2.60874 9.31449C2.60748 9.26761 2.59513 9.22169 2.57271 9.1805C2.55029 9.1393 2.51843 9.10401 2.47974 9.07749V9.08049C2.5033 9.07575 2.52559 9.06609 2.54515 9.05213C2.56471 9.03817 2.5811 9.02023 2.59324 8.99949C2.46374 8.96299 2.27524 8.96349 2.17474 9.00349C2.12922 9.01019 2.08575 9.0269 2.04745 9.0524C2.00915 9.0779 1.97698 9.11157 1.95324 9.15099C1.9288 9.20715 1.91618 9.26775 1.91618 9.32899C1.91618 9.39024 1.9288 9.45083 1.95324 9.50699C2.03024 9.66799 2.39324 10.4375 2.50624 10.68C2.53024 10.731 2.54474 10.785 2.54474 10.8445C2.54474 10.9925 2.40924 11.044 2.33224 11.044C2.23974 11.044 2.14574 10.9735 2.14574 10.886C2.14574 10.8315 2.17624 10.7975 2.21924 10.7975C2.32374 10.7975 2.31724 10.886 2.29624 10.9415C2.36074 10.9125 2.39874 10.86 2.38824 10.8055C2.42911 10.8 2.46631 10.7791 2.49224 10.747C2.48039 10.7302 2.46487 10.7162 2.44686 10.7063C2.42884 10.6963 2.4088 10.6906 2.38824 10.6895C2.40924 10.6045 2.35224 10.569 2.29624 10.549C2.31374 10.6115 2.32524 10.6835 2.21924 10.6835C2.14174 10.6835 2.08074 10.6965 2.04524 10.7475C2.04274 10.6805 2.03624 10.4145 2.03624 10.4145C2.03224 10.3155 2.16974 10.318 2.25724 10.3475C2.22374 10.233 2.15624 10.171 1.99874 10.1865C2.0229 10.1771 2.04352 10.1604 2.05769 10.1387C2.07186 10.117 2.07887 10.0914 2.07774 10.0655C2.07774 9.97199 2.00174 9.86849 1.95224 9.83749L1.92724 10.8115ZM1.95224 3.73949C1.95224 3.73949 2.07074 3.63999 2.11074 3.68949C2.17524 3.76999 1.91224 4.16949 1.91224 4.31049C1.91224 4.54149 2.06674 4.60399 2.25674 4.63699C2.38474 4.65949 2.59274 4.62799 2.59274 4.62799C2.55274 4.57549 2.52774 4.55999 2.46174 4.55599C2.50721 4.53233 2.54517 4.49643 2.57132 4.45235C2.59747 4.40826 2.61078 4.35774 2.60974 4.30649C2.60974 4.10749 2.52774 4.02549 2.52774 3.80149C2.52774 3.67699 2.62974 3.51849 2.62974 3.51849C2.44974 3.53699 2.35974 3.70349 2.41074 3.83699C2.39704 3.83953 2.38293 3.83871 2.36961 3.83462C2.35629 3.83053 2.34416 3.82328 2.33424 3.81349C2.32124 3.85049 2.34224 3.89349 2.36974 3.93049C2.34724 3.94249 2.33074 3.93499 2.29524 3.92749C2.29874 3.96599 2.32124 4.00599 2.37724 4.04399C2.21474 4.00199 2.11524 4.11499 2.11524 4.23349C2.11524 4.32299 2.17774 4.38649 2.23924 4.38649C2.25924 4.38649 2.28824 4.37849 2.30474 4.36599C2.31624 4.39049 2.31024 4.42349 2.29824 4.44799C2.34324 4.43649 2.37124 4.40949 2.35124 4.35399C2.3819 4.35274 2.41083 4.33945 2.43174 4.31699C2.42207 4.30496 2.40969 4.29538 2.39562 4.28904C2.38154 4.28269 2.36616 4.27977 2.35074 4.28049C2.37574 4.22849 2.34774 4.19949 2.30724 4.17649C2.30724 4.17649 2.33324 4.28049 2.26674 4.28049C2.23674 4.28049 2.20974 4.27049 2.20974 4.22699C2.20974 4.18899 2.24324 4.13599 2.32024 4.13949C2.39724 4.14249 2.45974 4.19249 2.45974 4.31599C2.45974 4.42949 2.36824 4.48549 2.24774 4.48949C2.13924 4.49249 2.05724 4.43349 2.05724 4.32149C2.05724 4.17199 2.27324 3.83199 2.27324 3.69849C2.27324 3.59849 2.18374 3.54249 2.09574 3.54249C1.98174 3.54249 1.88574 3.65549 1.88574 3.65549L1.95224 3.73949Z" fill="#FFCC4D"/>
<path d="M1.95241 3.73949C1.95241 3.73949 1.83391 3.63999 1.79391 3.68949C1.72891 3.77049 1.99241 4.16999 1.99241 4.31099C1.99241 4.54199 1.83791 4.60449 1.64791 4.63749C1.51991 4.65949 1.31241 4.62799 1.31241 4.62799C1.35141 4.57549 1.37691 4.55999 1.44291 4.55599C1.39731 4.53245 1.35923 4.49659 1.33298 4.45248C1.30673 4.40838 1.29337 4.35781 1.29441 4.30649C1.29441 4.10749 1.37641 4.02549 1.37641 3.80149C1.37641 3.67699 1.27441 3.51849 1.27441 3.51849C1.45441 3.53699 1.54441 3.70349 1.49341 3.83699C1.50719 3.83944 1.52136 3.83859 1.53474 3.83451C1.54813 3.83042 1.56035 3.82322 1.57041 3.81349C1.58341 3.85049 1.56291 3.89349 1.53491 3.93049C1.55691 3.94249 1.57341 3.93499 1.60941 3.92749C1.60591 3.96599 1.58291 4.00599 1.52741 4.04399C1.68941 4.00199 1.78891 4.11499 1.78891 4.23349C1.78891 4.32299 1.72641 4.38649 1.66491 4.38649C1.64158 4.38599 1.61887 4.37888 1.59941 4.36599C1.58841 4.39099 1.59441 4.42349 1.60591 4.44799C1.56141 4.43649 1.53341 4.40949 1.55341 4.35449C1.53822 4.35396 1.52328 4.35041 1.50946 4.34406C1.49564 4.33771 1.48322 4.32868 1.47291 4.31749C1.48243 4.30538 1.49469 4.2957 1.50869 4.28927C1.52269 4.28283 1.53802 4.27982 1.55341 4.28049C1.52841 4.22849 1.55641 4.19949 1.59691 4.17649C1.59691 4.17649 1.57091 4.28049 1.63741 4.28049C1.66741 4.28049 1.69441 4.27049 1.69441 4.22699C1.69441 4.18899 1.66091 4.13599 1.58391 4.13949C1.50641 4.14249 1.44391 4.19249 1.44391 4.31549C1.44391 4.42899 1.53541 4.48499 1.65591 4.48899C1.76491 4.49199 1.84691 4.43349 1.84691 4.32099C1.84691 4.17149 1.63091 3.83149 1.63091 3.69799C1.63091 3.59799 1.72041 3.54199 1.80841 3.54199C1.92241 3.54199 2.01841 3.65499 2.01841 3.65499L1.95241 3.73949ZM1.92741 6.43949C1.92741 6.68899 2.15141 6.81749 2.32741 6.81749C2.56441 6.81749 2.69091 6.67549 2.69091 6.48949C2.69091 6.38449 2.67141 6.31849 2.62291 6.21749L2.07941 5.08849C2.05984 5.04138 2.05129 4.99042 2.05441 4.93949C2.05441 4.83849 2.15291 4.75549 2.25591 4.75299C2.34941 4.75099 2.45191 4.84049 2.45191 4.94299C2.45191 5.06749 2.38791 5.12249 2.32141 5.12249C2.23991 5.12249 2.20741 5.08899 2.20741 5.03149C2.20741 4.99149 2.22691 4.97449 2.25441 4.97449C2.32441 4.97449 2.30491 5.06849 2.30491 5.06849C2.31417 5.06654 2.32288 5.06259 2.33045 5.05691C2.33802 5.05124 2.34426 5.04399 2.34873 5.03566C2.35321 5.02733 2.35581 5.01812 2.35636 5.00868C2.35691 4.99924 2.35539 4.98979 2.35191 4.98099C2.37805 4.97543 2.40161 4.96136 2.41891 4.94099C2.40053 4.92204 2.37681 4.90914 2.35091 4.90399C2.36741 4.84999 2.34541 4.82399 2.29841 4.81249C2.30791 4.83349 2.30791 4.85249 2.30491 4.87049C2.23041 4.84949 2.11641 4.88299 2.11641 5.01149C2.11641 5.13899 2.20491 5.24649 2.37141 5.21999C2.33141 5.23899 2.31191 5.27749 2.30791 5.32049C2.32837 5.31321 2.34974 5.30883 2.37141 5.30749C2.35191 5.34149 2.32491 5.37099 2.32591 5.43849C2.35691 5.42449 2.38541 5.39849 2.42491 5.41499C2.36291 5.53699 2.43891 5.70449 2.63291 5.74449C2.56722 5.67259 2.52975 5.57936 2.52741 5.48199C2.52741 5.19299 2.60841 5.14399 2.60841 4.94299C2.60703 4.89613 2.59463 4.85026 2.57222 4.80909C2.54981 4.76791 2.51802 4.73259 2.47941 4.70599V4.70949C2.50293 4.70446 2.52515 4.69462 2.54468 4.6806C2.56421 4.66658 2.58063 4.64867 2.59291 4.62799C2.46291 4.59199 2.27441 4.59249 2.17341 4.63249C2.12789 4.63899 2.08441 4.65562 2.04616 4.68114C2.00791 4.70667 1.97588 4.74045 1.95241 4.77999C1.92794 4.83615 1.91531 4.89674 1.91531 4.95799C1.91531 5.01925 1.92794 5.07984 1.95241 5.13599C2.02941 5.29699 2.39241 6.06649 2.50541 6.30849C2.53001 6.35989 2.54314 6.41602 2.54391 6.47299C2.54391 6.62149 2.40841 6.67299 2.33141 6.67299C2.23891 6.67299 2.14491 6.60249 2.14491 6.51499C2.14491 6.45949 2.17541 6.42549 2.21841 6.42549C2.32291 6.42549 2.31641 6.51399 2.29541 6.56999C2.35991 6.54099 2.39791 6.48899 2.38741 6.43399C2.42825 6.42807 2.46538 6.40701 2.49141 6.37499C2.46591 6.34299 2.43491 6.31849 2.38741 6.31799C2.40841 6.23299 2.35141 6.19649 2.29541 6.17649C2.31291 6.23899 2.32441 6.31149 2.21841 6.31149C2.14091 6.31149 2.07991 6.32449 2.04441 6.37499C2.04191 6.30799 2.03541 6.04199 2.03541 6.04199C2.03141 5.94249 2.16891 5.94549 2.25641 5.97499C2.22391 5.86099 2.15641 5.79899 1.99891 5.81449C2.02308 5.80511 2.04369 5.78839 2.05786 5.76669C2.07203 5.74499 2.07904 5.71939 2.07791 5.69349C2.07791 5.59999 2.00191 5.49599 1.95241 5.46549L1.92741 6.43949Z" fill="#FFCC4D"/>
</g>
<defs>
<clipPath id="clip0_57_7343">
<rect width="18" height="18" fill="white" transform="translate(0.223633)"/>
</clipPath>
</defs>
</svg>
