<svg width="19" height="18" viewBox="0 0 19 18" fill="none" xmlns="http://www.w3.org/2000/svg">
<g clip-path="url(#clip0_170_14339)">
<path d="M3.22363 15.5H16.2236C16.7541 15.5 17.2628 15.2893 17.6378 14.9142C18.0129 14.5391 18.2236 14.0304 18.2236 13.5V11.5H3.22363V15.5Z" fill="#4AA657"/>
<path d="M16.2236 2.5H3.22363V11.5H18.2236V4.5C18.2236 3.96957 18.0129 3.46086 17.6378 3.08579C17.2628 2.71071 16.7541 2.5 16.2236 2.5Z" fill="#C8313E"/>
<path d="M2.22363 2.5C1.6932 2.5 1.18449 2.71071 0.809419 3.08579C0.434347 3.46086 0.223633 3.96957 0.223633 4.5L0.223633 13.5C0.223633 14.0304 0.434347 14.5391 0.809419 14.9142C1.18449 15.2893 1.6932 15.5 2.22363 15.5H3.22363V2.5H2.22363Z" fill="white"/>
<path d="M0.60668 14.594L0.91918 14.0395L1.23968 14.61L0.96868 15.0455C1.05394 15.1151 1.14493 15.1773 1.24068 15.2315L1.63668 14.513L0.92668 13.375L0.36818 14.238C0.45968 14.468 0.59368 14.674 0.75868 14.853L0.60668 14.594ZM3.21418 14.5485L2.46568 13.4375L1.71468 14.523L2.35768 15.5H2.68118L3.21418 14.5485ZM2.48768 14.039L2.80818 14.6095L2.48768 15.125L2.17518 14.594L2.48768 14.039ZM3.22368 9.1665V8.7195L3.06718 8.9375L3.22368 9.1665ZM1.63618 3.513L1.18918 2.796C0.797749 3.03393 0.500226 3.39943 0.34668 3.831L0.98918 4.6875L1.63618 3.513ZM0.60668 3.594L0.91918 3.0395L1.23968 3.61L0.91918 4.125L0.60668 3.594ZM2.53218 4.7655L3.21418 3.548L2.50818 2.5H2.42268L1.71518 3.523L2.53218 4.7655ZM2.80768 3.6095L2.48768 4.125L2.17518 3.594L2.48768 3.0395L2.80768 3.6095Z" fill="#C8313E"/>
<path d="M2.70013 7.5L3.13763 6.7735L3.22363 6.8115V6.5L2.52063 5.406L1.67663 6.578L0.926633 5.375L0.223633 6.4615V6.7865L0.653133 7.5L0.957633 7.0545L0.739133 6.75L0.903133 6.531L1.37963 7.148L0.676633 8.304L0.223633 7.6805V8.457L0.252633 8.4185L0.729133 9.0355L0.223633 9.8675V10.456L0.676633 9.832L1.37963 10.988L0.984633 11.5L0.903133 11.6055L0.824133 11.5L0.739133 11.3865L0.958133 11.082L0.653633 10.6365L0.223633 11.3505V11.638L0.942633 12.7345L1.64263 11.5L1.66913 11.453L1.69813 11.5L2.50513 12.8045L3.22363 11.531V11.3355L3.16113 11.3635L2.72363 10.6365L2.41863 11.082L2.63763 11.3865L2.55263 11.5L2.47363 11.6055L2.39213 11.5L1.99713 10.9885L2.70013 9.8325L3.22363 10.553V9.982L2.64513 9.031L3.12163 8.414L3.22363 8.55V7.5515L2.67663 8.305L1.97363 7.1485L2.45013 6.5315L2.61413 6.75L2.39513 7.0545L2.70013 7.5ZM2.36613 8.5155V9.4795L1.66863 10.581L1.01163 9.475V8.521L1.66863 7.4145L2.36613 8.5155Z" fill="#C8313E"/>
<path d="M1.23883 8.4115L1.53783 8.957L1.23883 9.5025L1.45783 9.6225L1.68033 9.217L1.90283 9.6225L2.12183 9.5025L1.82283 8.957L2.12183 8.4115L1.90283 8.2915L1.68033 8.697L1.45783 8.2915L1.23883 8.4115ZM0.236328 13.094L0.548828 13.625L0.869328 13.1095L0.548828 12.539L0.236328 13.094ZM0.994328 13.094L1.30683 13.625L1.62683 13.1095L1.30683 12.539L0.994328 13.094ZM1.73633 13.094L2.04883 13.625L2.36933 13.1095L2.04883 12.539L1.73633 13.094ZM2.53233 13.094L2.84483 13.625L3.16483 13.1095L2.84483 12.539L2.53233 13.094ZM0.236328 5.0625L0.548828 5.594L0.869328 5.078L0.548828 4.508L0.236328 5.0625ZM0.994328 5.0625L1.30683 5.594L1.62683 5.078L1.30683 4.508L0.994328 5.0625ZM1.73633 5.0625L2.04883 5.594L2.36933 5.078L2.04883 4.508L1.73633 5.0625ZM2.53233 5.0625L2.84483 5.594L3.16483 5.078L2.84483 4.508L2.53233 5.0625Z" fill="#C8313E"/>
</g>
<defs>
<clipPath id="clip0_170_14339">
<rect width="18" height="18" fill="white" transform="translate(0.223633)"/>
</clipPath>
</defs>
</svg>
