<svg width="180" height="180" viewBox="0 0 180 180" fill="none" xmlns="http://www.w3.org/2000/svg">
<rect width="180" height="180" fill="white"/>
<path d="M69.2601 114.407C64.4517 116.775 58.5119 115.75 53.951 113.028C49.3547 110.305 45.8898 106.027 42.7432 101.714C40.94 99.2036 39.2075 96.6226 38.1822 93.7234C34.8941 84.3541 39.7026 73.8887 46.6323 66.7468C53.5267 59.6049 62.401 54.6905 69.8257 48.079C72.9724 45.2859 75.8362 42.2098 79.195 39.6996C87.6451 33.3001 98.9236 30.7899 109.318 33.0173C114.904 34.2194 120.349 36.8357 124.203 41.0431C127.208 44.2958 129.153 48.3617 131.557 52.0741C133.891 55.6804 136.648 59.0039 139.795 61.9385C142.588 64.5548 145.664 66.8882 148.21 69.7521C156.801 79.4749 157.225 95.4205 149.2 105.603C143.896 112.321 135.835 116.245 127.774 118.968C121.269 121.195 124.415 101.608 117.556 100.936C112.571 100.441 95.6709 108.431 90.6857 116.493C88.5643 119.922 84.7106 119.922 80.7153 119.675C75.7302 119.392 70.8157 117.801 66.573 115.149" fill="#F4F6F9"/>
<path d="M54.8343 155.03C55.0465 153.298 56.6375 151.99 57.0618 150.292C57.2385 149.585 57.2031 148.808 57.1678 148.065C56.8849 142.832 56.8849 137.564 57.1678 132.332C57.2738 130.104 57.4506 127.806 58.6174 125.897C59.5013 124.447 60.9155 123.245 61.0923 121.548C61.1984 120.523 60.8094 119.533 60.8094 118.508C60.8094 117.482 61.4105 116.28 62.4358 116.28L61.9762 116.068C62.3298 113.947 60.9863 111.896 59.3599 110.482C57.7335 109.068 55.7536 108.078 54.1979 106.628C52.3947 104.966 51.1927 102.81 50.0613 100.653C47.9753 96.7283 45.9953 92.6271 45.6418 88.2076C45.5357 86.8994 45.6064 85.5558 46.066 84.3537C47.1267 81.6313 49.9552 80.1464 52.5715 78.8736L52.6776 78.2372C53.5261 75.5501 56.4607 73.9945 59.2538 73.8531C62.0469 73.7116 64.7693 74.7016 67.421 75.6915C71.8051 77.3179 76.4367 79.1564 79.0177 83.0456C81.528 86.7933 81.0684 90.8239 81.2805 95.0666C81.4573 98.3193 82.4826 101.042 82.1997 104.436C82.0937 105.567 81.9522 106.699 82.0937 107.795C82.4119 109.987 83.9322 112.037 83.6847 114.229L83.4019 113.098C85.7707 117.412 87.2556 122.185 87.7506 127.099C87.9274 128.69 87.9981 130.387 88.8113 131.766C89.6245 133.145 91.0741 134.029 92.2055 135.196C95.7411 138.943 95.2461 144.848 94.3975 149.974" fill="white"/>
<path d="M93.5491 136.079C92.842 135.054 91.9228 134.24 90.9681 133.392C89.9782 132.508 89.1296 131.589 88.7407 130.281C88.3518 128.937 88.3518 127.558 88.1751 126.179C87.9983 124.73 87.7154 123.315 87.3972 121.901C86.69 119.002 85.594 116.209 84.2151 113.557C84.1444 111.648 83.0484 109.951 82.6595 108.112C82.412 106.981 82.5888 105.779 82.6949 104.648C82.801 103.481 82.7655 102.314 82.6241 101.183C82.3766 99.026 81.8463 96.8693 81.7756 94.6772C81.6695 92.5559 81.7403 90.3992 81.4221 88.2779C81.1392 86.1565 80.3967 84.1059 79.1239 82.3734C77.9925 80.8178 76.5076 79.5803 74.8812 78.555C73.2195 77.5297 71.381 76.7165 69.5778 76.0094C67.4918 75.1962 65.3705 74.3476 63.2138 73.8172C60.951 73.2515 58.5114 73.1455 56.3194 74.0294C54.4101 74.8072 52.8192 76.1861 52.1827 78.166C52.1474 78.3075 52.1473 78.4489 52.218 78.555C49.8846 79.6864 47.4097 80.9945 46.0662 83.2926C44.4751 86.015 45.0762 89.5506 45.8894 92.4145C46.7733 95.5611 48.2936 98.531 49.8139 101.395C50.5564 102.774 51.2988 104.117 52.2534 105.319C53.208 106.557 54.3394 107.582 55.6123 108.466C57.0265 109.456 58.5115 110.34 59.7136 111.577C60.8096 112.744 61.7288 114.3 61.446 115.962C61.446 116.032 61.446 116.068 61.446 116.103C60.8803 116.456 60.4913 117.128 60.3499 117.8C60.0671 119.144 60.8095 120.452 60.5267 121.795C60.2792 122.997 59.36 123.952 58.6529 124.907C57.8751 125.967 57.3447 127.169 57.0619 128.477C56.779 129.821 56.6729 131.2 56.6375 132.579C56.5668 134.134 56.4961 135.725 56.4961 137.316C56.4254 140.498 56.4962 143.681 56.6022 146.863C56.6376 147.676 56.7083 148.524 56.6729 149.373C56.6376 150.08 56.4255 150.716 56.0719 151.353C55.4355 152.519 54.5162 153.58 54.3394 154.924C54.304 155.207 54.4101 155.489 54.693 155.56C54.9405 155.631 55.294 155.489 55.3294 155.207C55.5062 154.075 56.178 153.191 56.779 152.237C57.4508 151.105 57.7689 149.974 57.6982 148.666C57.5921 145.66 57.4508 142.655 57.4861 139.615C57.4861 136.645 57.5215 133.639 57.8043 130.67C57.9104 129.361 58.1579 128.018 58.7236 126.851C59.2539 125.755 60.0671 124.871 60.7389 123.881C61.0924 123.351 61.3753 122.785 61.5521 122.184C61.7288 121.477 61.6581 120.735 61.5521 120.027C61.446 119.32 61.2692 118.613 61.446 117.906C61.552 117.588 61.7289 117.234 62.0117 117.022C65.2644 117.765 68.5525 118.542 71.9114 118.295C74.7398 118.083 77.5329 117.199 79.9371 115.714C81.0332 115.042 82.0584 114.3 82.9777 113.416C83.0484 113.557 83.1191 113.699 83.1898 113.84C83.1898 113.982 83.1898 114.123 83.1545 114.264C83.1191 114.618 83.402 114.795 83.6495 114.759C84.6748 116.845 85.5234 119.002 86.1244 121.23C86.478 122.573 86.7962 123.952 87.0083 125.331C87.2204 126.71 87.2911 128.124 87.5032 129.503C87.7154 130.811 88.1751 131.978 89.059 132.968C89.8721 133.922 90.9328 134.629 91.7813 135.513C93.3724 137.175 94.1502 139.402 94.3976 141.665C94.6805 144.388 94.3623 147.11 93.9027 149.797C93.7966 150.469 94.8219 150.752 94.928 150.08C95.6705 145.554 96.3069 140.145 93.5491 136.079ZM76.1541 116.28C73.3963 117.234 70.5324 117.411 67.6333 117.058C66.0422 116.845 64.4513 116.492 62.8956 116.138C62.8602 115.962 62.7188 115.82 62.5066 115.82C62.7188 113.027 60.6681 110.8 58.5114 109.209C57.274 108.289 55.9305 107.511 54.7637 106.486C53.597 105.461 52.7131 104.259 51.8999 102.951C51.0867 101.642 50.3796 100.228 49.6724 98.8492C48.93 97.3996 48.2229 95.95 47.6572 94.4297C47.0915 92.9448 46.6319 91.3891 46.349 89.8335C46.1015 88.3132 45.9248 86.6161 46.349 85.0958C47.1622 82.1613 50.1321 80.641 52.6424 79.4389C52.7485 79.6157 52.9605 79.7571 53.208 79.7217C53.7737 79.6157 54.4101 79.5095 54.9758 79.651C55.6476 79.8277 55.8951 80.3227 56.0012 80.9945C56.178 82.1259 56.0011 83.3634 55.5062 84.3887C55.3294 84.7423 55.1173 85.0605 54.9051 85.3787C54.6223 85.414 54.4455 85.6262 54.4455 85.909C54.0212 86.2979 53.5616 86.6161 52.9959 86.8282C51.6171 87.3586 49.8493 87.5 48.3997 87.1465C47.7279 86.9697 47.4451 87.995 48.1168 88.1718C49.5311 88.5253 51.0867 88.4546 52.5009 88.1011C53.2434 87.9243 53.9151 87.6414 54.5162 87.2172C54.799 88.6668 55.683 89.9749 56.9558 90.7174C56.9911 90.7527 57.0265 90.7528 57.0619 90.7528C57.2033 91.2831 57.3801 91.7781 57.5922 92.2731C58.2286 93.7227 59.4307 95.5258 61.2338 95.349C61.3752 95.349 61.4813 95.2783 61.5874 95.2076C62.2945 96.0207 63.2137 96.6925 64.2391 97.0814C62.5773 98.6371 61.7996 101.041 62.3653 103.269C62.542 103.94 63.5673 103.658 63.3905 102.986C62.8956 100.971 63.7087 98.6725 65.4058 97.435L65.4412 97.3997C65.5119 97.3997 65.5826 97.435 65.6533 97.435C67.1029 97.6471 68.5879 97.4704 69.9668 96.94C71.2042 96.4451 72.5124 95.6318 73.0073 94.3237C73.3255 93.4751 73.1488 92.6619 72.6892 92.0255C72.7245 91.9902 72.7599 91.9902 72.7952 91.9548C72.9013 91.8841 73.0073 91.8488 73.1134 91.7781C73.1488 91.7781 73.1841 91.7427 73.1841 91.7427C73.2548 91.7074 73.2902 91.7073 73.3609 91.672C73.467 91.6366 73.573 91.6013 73.7144 91.6013C73.7498 91.6013 73.7852 91.6013 73.8205 91.6013C73.8912 91.6013 73.9266 91.6013 73.9973 91.6013C74.068 91.6013 74.1387 91.6013 74.1741 91.6013C74.2094 91.6013 74.2448 91.6013 74.2448 91.6013C74.2801 91.6013 74.2801 91.6013 74.3155 91.6013C74.2801 91.6013 74.2801 91.6013 74.2448 91.6013C74.2801 91.6013 74.3862 91.6367 74.4216 91.6367C74.4923 91.6367 74.563 91.672 74.6337 91.672C74.9166 91.7427 75.2348 91.5659 75.2702 91.3184C75.3409 91.0356 75.1994 90.7528 74.9166 90.6821C73.8913 90.3639 72.7245 90.6113 71.9114 91.2831C71.7346 91.177 71.5931 91.0709 71.381 91.0002C71.0275 90.8588 70.6739 90.7527 70.3203 90.7174C70.3557 90.7174 70.3557 90.6821 70.391 90.6821C70.7446 90.3992 71.0274 90.0456 71.2749 89.6567C71.876 88.7728 72.4417 87.8889 73.0427 87.0404C73.2195 86.7929 73.0781 86.4393 72.8659 86.2979C72.6185 86.1565 72.3002 86.2625 72.1234 86.4747C71.5931 87.2525 71.0628 88.0304 70.5678 88.8082C70.3557 89.1264 70.1789 89.4092 69.9314 89.6567C69.896 89.6921 69.79 89.7981 69.7546 89.8335C69.79 89.7981 69.6839 89.9042 69.6839 89.9042C69.6486 89.9395 69.6132 89.9396 69.5778 89.975C69.5778 89.975 69.5424 89.9749 69.5424 90.0103C69.5071 90.0103 69.4718 90.0456 69.4364 90.0456C69.4364 90.0456 69.2596 90.0456 69.3657 90.0456C69.0828 90.0103 68.8 90.1164 68.7293 90.3992C68.694 90.5406 68.7293 90.7174 68.8353 90.8588C68.7646 90.8588 68.7293 90.8942 68.6585 90.8942C68.6939 90.8234 68.7293 90.7527 68.7293 90.6467C68.694 89.1971 67.5979 87.8182 66.1483 87.5707C65.8655 87.5354 65.5473 87.6414 65.5119 87.9243C65.4412 88.1718 65.5826 88.5254 65.8655 88.5607C66.0069 88.5961 66.1483 88.6314 66.2897 88.6667C66.3251 88.6667 66.3604 88.7021 66.3958 88.7021C66.3251 88.6667 66.3251 88.6667 66.3604 88.6667C66.3604 88.6667 66.3958 88.6667 66.3958 88.7021C66.4665 88.7375 66.5372 88.7728 66.5726 88.8082C66.6433 88.8435 66.6786 88.8789 66.7494 88.9143C66.7847 88.9496 66.8201 88.9496 66.8201 88.985C66.714 88.9143 66.7847 88.985 66.8201 88.985C66.9261 89.091 67.0322 89.1971 67.1383 89.3031C67.1737 89.3385 67.209 89.3738 67.209 89.3738L67.1736 89.3385C67.1736 89.3739 67.209 89.3739 67.209 89.4092C67.2444 89.4799 67.2797 89.5153 67.3151 89.586C67.3504 89.6567 67.3857 89.7274 67.4211 89.7628C67.4211 89.7981 67.4565 89.8335 67.4565 89.8689C67.4918 90.0103 67.5626 90.1163 67.5626 90.2577C67.5626 90.2931 67.5625 90.3285 67.5979 90.3638C67.5979 90.4345 67.5979 90.5053 67.5979 90.576C67.5979 90.7528 67.7039 90.9649 67.8807 91.0356C67.4211 91.2124 66.9615 91.4245 66.5372 91.6367C65.9361 91.9195 66.4665 92.8387 67.0675 92.5559C68.1636 92.0255 69.5071 91.3892 70.7446 91.8134C71.0274 91.9195 71.2749 92.0255 71.4517 92.2023C71.4871 92.2377 71.487 92.273 71.5224 92.3084C71.5578 92.3437 71.5931 92.3437 71.6285 92.3791C72.0528 92.8387 72.2296 93.4398 71.9114 94.0762C71.381 95.1015 70.1435 95.7026 69.1182 96.0561C67.9514 96.4451 66.6433 96.5511 65.4412 96.2682C63.1784 95.7379 61.5167 94.0408 61.0217 91.7781C60.7742 90.576 60.7389 89.3032 60.8449 88.1011C60.951 86.9697 61.3399 85.8029 62.1531 84.9897C63.0723 84.0705 64.3805 83.6462 65.5826 83.2573C67.1383 82.7624 68.6939 82.2673 70.2496 81.7723C70.886 81.5602 70.6032 80.5349 69.9668 80.747C68.3404 81.2774 66.6786 81.7723 65.0523 82.3027C63.7794 82.7269 62.4359 83.2219 61.446 84.1765C60.456 85.1311 59.9963 86.4747 59.8196 87.8182C59.6428 89.2678 59.6782 90.7881 60.0317 92.2023C60.2085 92.9094 60.4913 93.5812 60.8802 94.1823C59.7135 94.0762 58.9711 92.7327 58.5468 91.7427C57.9811 90.4699 57.769 89.0557 57.7336 87.6768C57.6982 86.2626 57.875 84.7776 58.2639 83.3987C58.4407 82.6562 58.7589 82.0199 59.3246 81.4895C59.8196 81.0299 60.4914 80.6763 61.0924 80.3581C62.4006 79.7217 63.7088 80.1106 65.0876 80.146C65.7594 80.1814 65.7594 79.1207 65.0876 79.0853C63.7088 79.0146 62.3652 78.661 61.0217 79.2267C59.5014 79.8631 58.0518 80.8531 57.4507 82.4441C56.885 83.9644 56.7083 85.7322 56.6729 87.3586C56.6729 87.9243 56.7083 88.49 56.779 89.0557C56.0012 88.3132 55.5416 87.2525 55.4709 86.1565C55.5062 86.0858 55.5769 86.0504 55.6123 85.9797C56.3194 85.0958 56.8143 84.0352 56.9911 82.9038C57.1679 81.7724 57.2387 80.3228 56.5315 79.3682C56.2133 78.9086 55.7891 78.661 55.2941 78.5196C55.3294 78.4489 55.3648 78.3782 55.3648 78.3075C55.3648 78.1661 55.4001 78.0246 55.4709 77.8479C55.5062 77.7418 55.5062 77.7064 55.5416 77.6711C55.5769 77.6004 55.6122 77.4943 55.6829 77.4236C55.8597 77.1408 56.1426 76.8579 56.3548 76.6811C57.0619 76.1508 57.875 75.9386 58.7236 75.7618C59.0064 75.6911 59.1832 75.373 59.0771 75.1255C59.0064 74.8426 58.7236 74.7012 58.4407 74.7719C57.4154 74.9841 56.4254 75.3022 55.6123 75.9386C54.8698 76.5396 54.3748 77.3882 54.3041 78.3428C54.3041 78.3782 54.3041 78.4135 54.3041 78.4489C53.8445 78.4489 53.3848 78.5196 52.9606 78.5903C52.9606 78.5903 52.9605 78.555 52.9252 78.555C52.9959 78.4843 53.0666 78.4136 53.1019 78.3075C53.6323 76.6811 55.0112 75.5143 56.5668 74.8779C58.4407 74.1354 60.4207 74.1709 62.3653 74.5951C64.4866 75.0548 66.5372 75.8679 68.5878 76.6457C70.3556 77.3175 72.0881 78.06 73.7144 78.9792C75.3055 79.8985 76.7905 81.0299 77.9219 82.4441C79.1947 84.0351 79.9371 85.909 80.2907 87.9243C80.6089 89.9042 80.5735 91.9195 80.6442 93.9348C80.715 96.0208 81.0685 98.0714 81.4221 100.122C81.5988 101.289 81.7049 102.491 81.6695 103.693C81.6342 105.001 81.3514 106.309 81.5281 107.618C81.7049 109.067 82.4474 110.446 82.8717 111.86C80.9978 113.911 78.6997 115.396 76.1541 116.28ZM73.1488 91.7781C73.1488 91.7781 73.1842 91.7781 73.1488 91.7781V91.7781ZM69.4364 90.0103C69.4011 90.0103 69.4011 90.0103 69.4364 90.0103V90.0103ZM86.2305 124.27C84.4627 125.083 82.6949 125.897 80.8917 126.568C77.639 127.77 74.3155 128.301 70.886 127.735C67.4565 127.205 64.2391 125.755 61.0924 124.376C60.456 124.093 61.0217 123.174 61.6228 123.457C63.3198 124.199 65.0523 124.977 66.8201 125.578C69.9314 126.674 73.2195 127.24 76.5076 126.674C79.7604 126.109 82.7656 124.73 85.7001 123.351C86.3012 123.068 86.8315 123.987 86.2305 124.27ZM79.9724 121.336C80.1846 121.583 80.4674 121.76 80.7856 121.866C81.3867 122.078 82.1292 121.901 82.5534 121.406C82.9423 120.911 83.1192 120.204 82.8717 119.603C82.7303 119.25 82.5535 119.002 82.2353 118.79C81.9878 118.613 81.6342 118.542 81.3514 118.542C80.9978 118.542 80.6442 118.649 80.3614 118.825C80.0078 119.037 79.7957 119.32 79.6543 119.709C79.6189 119.815 79.6189 119.957 79.6896 120.063C79.6189 120.169 79.5482 120.275 79.5836 120.381C79.6189 120.735 79.7249 121.053 79.9724 121.336ZM81.2453 120.911C81.2453 120.911 81.2806 120.911 81.316 120.911C81.2806 120.911 81.2453 120.911 81.2453 120.911ZM81.6342 120.876C81.6342 120.841 81.6342 120.841 81.6342 120.876V120.876ZM81.7756 120.77C81.7756 120.77 81.811 120.735 81.811 120.699C81.811 120.735 81.7756 120.735 81.7756 120.77ZM81.8817 120.593L81.917 120.522C81.8816 120.558 81.8817 120.593 81.8817 120.593ZM81.9524 120.346C81.9524 120.31 81.9524 120.31 81.9524 120.31C81.9524 120.31 81.9524 120.31 81.9524 120.346ZM81.917 119.957C81.917 119.957 81.917 119.957 81.917 119.921C81.917 119.957 81.917 119.957 81.917 119.957ZM81.8463 119.851C81.8463 119.851 81.811 119.815 81.811 119.78C81.8464 119.815 81.8463 119.851 81.8463 119.851ZM81.0331 119.674C80.9977 119.674 80.9978 119.674 80.9978 119.674C80.9978 119.674 80.9977 119.674 81.0331 119.674ZM80.7503 119.886C80.7857 119.851 80.821 119.815 80.821 119.78C80.821 119.78 80.8563 119.78 80.8563 119.745C80.8917 119.709 80.9271 119.709 80.9624 119.674C80.9624 119.674 80.9978 119.674 80.9978 119.639C81.0332 119.639 81.1038 119.603 81.1392 119.603C81.1745 119.603 81.1745 119.603 81.2099 119.603C81.2452 119.603 81.2806 119.603 81.3514 119.603C81.3867 119.603 81.3867 119.603 81.4221 119.603C81.4574 119.603 81.5281 119.639 81.5281 119.639C81.5635 119.639 81.5635 119.639 81.5988 119.674C81.6342 119.709 81.6696 119.709 81.7049 119.745L81.7402 119.78L81.7756 119.815C81.7756 119.815 81.7756 119.851 81.811 119.851C81.811 119.886 81.8463 119.886 81.8463 119.921C81.8463 119.921 81.8463 119.921 81.8817 119.957C81.8817 119.992 81.917 120.063 81.917 120.098V120.133C81.917 120.169 81.917 120.24 81.917 120.275C81.917 120.31 81.917 120.346 81.917 120.346C81.917 120.381 81.8817 120.452 81.8817 120.452C81.8817 120.452 81.8817 120.487 81.8817 120.522V120.558C81.8817 120.593 81.8463 120.593 81.8463 120.628C81.8463 120.628 81.811 120.664 81.811 120.699C81.811 120.699 81.811 120.735 81.7756 120.735C81.7403 120.77 81.7403 120.77 81.7049 120.805L81.6695 120.841C81.6342 120.876 81.5988 120.876 81.5634 120.911H81.5281C81.4928 120.911 81.4928 120.911 81.4574 120.911C81.4221 120.911 81.3867 120.911 81.316 120.911C81.316 120.911 81.316 120.911 81.2807 120.911H81.2453C81.1746 120.911 81.1392 120.876 81.0685 120.876C81.0685 120.876 81.0331 120.876 81.0331 120.841C80.9977 120.805 80.9271 120.77 80.8917 120.735C80.8564 120.699 80.8564 120.699 80.821 120.664C80.7857 120.628 80.7857 120.628 80.7503 120.593L80.7149 120.558C80.7149 120.522 80.6795 120.522 80.6795 120.487C80.6795 120.487 80.6795 120.487 80.6795 120.452V120.416C80.6795 120.381 80.6442 120.346 80.6442 120.31V120.275C80.6442 120.204 80.6088 120.169 80.6088 120.133C80.6442 120.098 80.6795 120.063 80.6795 119.992C80.6795 119.957 80.7149 119.957 80.7149 119.921C80.7149 119.921 80.715 119.886 80.7503 119.886Z" fill="black"/>
<path d="M104.368 178.647C102.671 174.192 105.429 169.419 107.585 165.141C110.591 159.13 112.535 152.554 113.207 145.872C113.56 142.336 113.773 138.412 116.389 136.008V136.043C117.98 123.032 116.495 109.42 120.95 97.0807C121.551 95.4543 122.258 93.7927 123.566 92.6259C124.733 91.5299 126.289 90.9288 127.809 90.3985C130.496 89.5146 133.289 88.8075 136.118 88.3832C138.592 87.9943 141.173 87.7821 143.542 88.5246C145.345 89.0903 147.184 90.2924 148.068 92.0248C148.386 92.6612 148.351 93.5098 148.952 93.828C149.588 94.1462 150.79 93.6158 151.603 94.0755C152.346 94.4997 152.912 95.1715 153.477 95.8433C154.255 96.7979 154.998 97.7879 155.669 98.8132C156.094 99.4142 156.483 100.051 156.624 100.758C156.765 101.43 156.659 102.101 156.553 102.773C155.457 109.243 152.098 115.289 147.149 119.602C145.77 120.804 144.249 121.901 142.729 122.926C141.244 123.916 139.123 124.764 137.85 126.037C136.86 127.027 136.789 128.76 136.507 130.103C136.082 132.154 135.764 134.24 135.552 136.326L136.118 136.891C138.274 137.563 139.087 140.25 138.875 142.478C138.663 144.705 137.779 146.862 137.779 149.125C137.815 152.554 139.901 155.559 141.598 158.565C145.169 164.929 147.007 172.247 146.866 179.531" fill="white"/>
<path d="M156.235 98.6725C155.598 97.7179 154.891 96.7633 154.184 95.844C153.548 95.0308 152.911 94.2177 152.027 93.6873C151.638 93.4752 151.25 93.3691 150.79 93.3338C150.33 93.3338 149.906 93.4398 149.446 93.3691C149.093 93.3337 148.987 93.0863 148.881 92.7681C148.739 92.3438 148.633 91.9195 148.386 91.4952C147.926 90.6467 147.219 89.9749 146.477 89.3739C142.87 86.6515 138.026 87.394 133.89 88.2072C131.627 88.6668 129.364 89.2678 127.172 90.0457C125.263 90.7174 123.46 91.6367 122.222 93.2984C120.985 94.9955 120.313 97.0815 119.712 99.0614C119.04 101.218 118.545 103.41 118.156 105.638C116.636 114.547 116.954 123.634 116.177 132.65C116.07 133.675 115.964 134.7 115.858 135.725C113.984 137.529 113.313 140.11 112.995 142.584C112.818 143.928 112.712 145.307 112.535 146.65C112.358 148.241 112.075 149.797 111.757 151.353C111.085 154.499 110.166 157.575 108.999 160.545C107.833 163.48 106.277 166.202 105.004 169.066C103.661 172.107 102.6 175.501 103.802 178.754C104.049 179.39 105.075 179.107 104.827 178.471C103.767 175.642 104.58 172.672 105.711 170.021C106.913 167.228 108.434 164.611 109.636 161.818C110.838 158.954 111.792 156.02 112.499 153.014C113.171 150.08 113.56 147.145 113.878 144.14C114.161 141.524 114.55 138.66 116.424 136.68C116.424 136.68 116.424 136.68 116.459 136.68C122.116 138.519 128.374 140.499 134.279 138.413C134.951 138.165 135.693 137.953 136.259 137.458C138.415 138.377 138.628 141.382 138.274 143.398C137.991 144.953 137.531 146.474 137.355 148.029C137.213 149.514 137.425 150.964 137.885 152.378C138.84 155.207 140.643 157.646 141.986 160.298C143.401 163.091 144.461 166.061 145.204 169.101C146.017 172.496 146.406 175.996 146.37 179.496C146.37 180.168 147.431 180.168 147.431 179.496C147.537 173.097 146.158 166.697 143.436 160.899C142.764 159.485 141.986 158.106 141.209 156.727C140.431 155.419 139.653 154.075 139.087 152.626C138.521 151.176 138.239 149.691 138.38 148.171C138.521 146.544 139.052 144.953 139.335 143.362C139.724 140.887 139.229 137.705 136.789 136.539C136.824 136.256 136.754 136.008 136.506 135.761C136.4 135.655 136.329 135.619 136.223 135.619C136.365 134.347 136.577 133.109 136.789 131.836C136.824 131.766 136.824 131.695 136.824 131.589C136.966 130.882 137.072 130.175 137.178 129.467C137.319 128.619 137.425 127.7 137.85 126.922C138.274 126.109 139.123 125.614 139.865 125.154C140.714 124.624 141.597 124.199 142.446 123.704C143.365 123.139 144.284 122.502 145.133 121.866C146.83 120.629 148.421 119.25 149.835 117.659C152.487 114.724 154.538 111.295 155.846 107.582C156.164 106.663 156.447 105.744 156.659 104.789C156.907 103.799 157.154 102.738 157.189 101.713C157.331 100.617 156.871 99.6271 156.235 98.6725ZM145.734 105.956C145.628 105.956 145.522 105.956 145.416 105.956H145.345C146.335 104.931 147.042 103.552 147.502 102.137C147.643 102.491 147.82 102.845 147.997 103.127C147.82 103.976 147.537 104.824 146.901 105.39C146.653 105.638 146.3 105.814 145.946 105.885C145.911 105.885 145.875 105.885 145.84 105.92C145.84 105.956 145.734 105.956 145.734 105.956ZM133.996 137.423C133.253 137.67 132.511 137.882 131.768 138.024C130.177 138.306 128.516 138.342 126.889 138.2C123.495 137.918 120.207 136.822 116.954 135.761C117.237 133.215 117.449 130.67 117.591 128.124C121.763 131.094 126.889 132.685 132.016 132.614C133.218 132.614 134.42 132.473 135.622 132.296C135.587 132.543 135.552 132.756 135.516 133.003C135.339 134.099 135.198 135.23 135.092 136.362C135.057 136.645 135.233 136.786 135.445 136.857C135.375 136.892 135.269 136.963 135.198 136.998C134.809 137.14 134.42 137.281 133.996 137.423ZM155.987 103.127C155.81 104.082 155.598 105.001 155.315 105.956C154.219 109.633 152.416 113.062 149.977 115.997C147.36 119.144 144.037 121.654 140.466 123.634C138.946 124.482 137.249 125.366 136.648 127.134C136.365 127.983 136.259 128.866 136.082 129.75C135.976 130.245 135.905 130.705 135.799 131.2C130.955 132.084 125.829 131.377 121.374 129.185C120.066 128.548 118.828 127.806 117.697 126.922L117.661 126.886C117.944 121.123 118.05 115.36 118.722 109.633C119.217 105.319 120.101 101.006 121.621 96.9047C122.328 95.0308 123.283 93.2984 125.016 92.2023C126.819 91.1063 129.011 90.5406 131.026 90.0103C133.218 89.4446 135.446 88.9496 137.673 88.7021C139.794 88.4546 142.022 88.4546 144.072 89.2325C145.663 89.8689 147.113 91.0003 147.749 92.5913C147.396 92.6266 147.078 92.9802 147.325 93.3691C147.643 93.8641 147.749 94.4297 147.785 95.0308C146.795 96.5157 146.583 98.425 146.936 100.193C146.865 100.511 146.795 100.829 146.689 101.147C146.088 103.304 144.956 105.673 142.729 106.451C142.764 106.38 142.835 106.309 142.87 106.239C143.648 104.931 144.108 103.446 144.603 102.031C145.168 100.405 145.663 98.7785 145.911 97.0815C146.194 95.2076 146.123 93.3338 145.557 91.566C145.345 90.9296 144.32 91.2124 144.532 91.8488C145.487 94.748 144.885 97.7886 143.966 100.617C143.542 101.996 143.047 103.375 142.481 104.683C141.951 105.85 141.279 106.946 140.112 107.547C139.052 108.077 137.814 108.113 136.718 107.724C137.39 107.193 138.062 106.663 138.628 106.027C139.405 105.178 139.9 104.153 140.254 103.057C140.643 101.855 141.032 100.652 141.279 99.4503C141.845 96.9754 141.88 94.253 140.395 92.0963C140.006 91.5306 139.087 92.061 139.476 92.6267C140.572 94.1823 140.749 96.1622 140.501 98.0361C140.36 99.0614 140.077 100.051 139.794 101.077C139.511 101.996 139.264 102.951 138.875 103.799C138.451 104.718 137.85 105.426 137.107 106.062C136.4 106.663 135.658 107.299 134.88 107.794C133.572 108.643 131.167 109.456 130.46 107.441C130.107 106.415 130.425 105.319 130.849 104.329C131.132 103.622 131.627 102.597 132.511 102.597C132.865 102.597 133.112 102.243 133.006 101.925C132.582 100.511 132.688 99.026 133.359 97.6825C133.43 97.5411 133.43 97.3643 133.395 97.2582C134.031 96.5511 134.562 95.738 134.986 94.8894C135.092 94.6419 135.057 94.2883 134.809 94.1469C134.562 94.0055 134.208 94.0762 134.067 94.3237C133.819 94.854 133.501 95.3844 133.147 95.8794C133.112 95.9147 133.077 95.9854 133.041 96.0208L133.006 96.0562C132.971 96.0915 132.971 96.0915 132.935 96.1269C132.829 96.2329 132.758 96.3744 132.652 96.4804C132.582 96.5511 132.511 96.6219 132.44 96.6926C130.92 96.0915 130.566 94.147 130.319 92.6974C130.284 92.4145 129.93 92.2731 129.682 92.3438C129.4 92.4145 129.258 92.6974 129.329 92.9802C129.506 94.0055 129.682 95.0662 130.213 95.9855C130.602 96.6572 131.167 97.2229 131.875 97.5765C131.875 97.6826 131.945 97.8239 132.016 97.8947C132.051 97.93 132.087 97.9654 132.157 97.9654C131.768 99.1321 131.662 100.37 131.91 101.572C131.238 101.784 130.743 102.35 130.354 102.951C129.789 103.905 129.364 105.072 129.329 106.203C129.294 107.158 129.576 108.219 130.284 108.89C131.097 109.668 132.228 109.774 133.253 109.562C134.173 109.385 135.057 108.926 135.834 108.36C137.036 108.996 138.451 109.138 139.759 108.784C140.678 108.537 141.456 108.006 142.092 107.335C142.198 107.511 142.411 107.618 142.658 107.547C143.365 107.37 144.002 107.087 144.567 106.698C145.593 107.193 146.795 106.946 147.679 106.239C148.35 105.673 148.775 104.895 149.022 104.047C149.057 104.082 149.128 104.117 149.164 104.153C150.401 104.895 151.921 104.718 153.23 105.249C153.866 105.496 154.149 104.471 153.512 104.223C152.416 103.764 151.144 103.87 150.048 103.41C148.916 102.915 148.492 101.536 148.209 100.44C147.643 98.2836 147.961 95.6673 149.977 94.3945C150.224 94.3945 150.436 94.3591 150.684 94.3591C151.179 94.3591 151.532 94.4652 151.921 94.748C152.734 95.3844 153.371 96.3037 154.007 97.1168C154.679 98.0007 155.351 98.8846 155.881 99.8392C156.341 100.935 156.199 101.961 155.987 103.127ZM121.056 132.614C121.091 132.862 121.091 133.145 120.95 133.357C120.808 133.569 120.631 133.71 120.384 133.781C119.96 133.887 119.535 133.746 119.217 133.463C119.076 133.321 118.934 133.144 118.899 132.968C118.828 132.756 118.864 132.543 118.934 132.331C118.934 132.296 118.97 132.261 118.97 132.225C119.076 131.978 119.323 131.801 119.571 131.766C119.677 131.73 119.783 131.73 119.889 131.73C119.995 131.73 120.136 131.766 120.242 131.801C120.455 131.872 120.631 131.978 120.773 132.119C120.879 132.225 121.02 132.437 121.056 132.614ZM137.496 111.613C139.087 113.805 139.264 116.881 137.956 119.285C137.638 119.886 136.718 119.356 137.037 118.755C138.168 116.669 137.956 114.088 136.577 112.178C136.188 111.577 137.107 111.047 137.496 111.613Z" fill="black"/>
<path d="M87.2207 120.063C87.6803 115.997 89.5188 112.143 92.3473 109.208C92.7009 108.819 93.1252 108.395 93.1605 107.865C93.1959 107.264 92.7009 106.733 92.4888 106.168C91.9231 104.789 92.807 103.233 92.9484 101.748C93.0899 100.157 92.312 98.637 92.3473 97.046C92.3473 94.3589 94.9636 91.9547 97.6507 92.1314L96.8022 91.2829C99.7014 83.1157 92.5948 76.3273 89.3421 69.3976C88.2107 66.9934 87.1854 64.4124 87.4683 61.7961C87.7511 59.1797 89.8371 56.5634 92.4888 56.5988C92.0645 53.8057 95.0344 51.0479 97.7922 51.7196C98.5346 50.4822 99.3124 49.1387 100.585 48.5023C101.858 47.8659 103.767 48.1841 104.298 49.5276C105.217 48.5023 106.384 47.5477 107.763 47.5477C109.071 47.5477 110.237 48.467 110.909 49.563C111.581 50.659 111.864 51.9671 112.147 53.24C114.303 51.7904 117.485 52.9925 118.9 55.1845C120.314 57.3766 120.349 60.1698 119.925 62.7507C119.465 65.5085 118.546 68.1955 117.203 70.635C115.718 73.2867 113.455 75.8677 112.606 78.8023C111.616 82.1257 112.854 85.9089 113.844 89.0909L113.738 88.313C115.329 90.7879 116.107 93.7578 115.93 96.657C115.894 97.152 115.859 97.7177 116.071 98.1773C116.319 98.7077 116.884 99.0258 117.309 99.4501C117.733 99.8744 118.016 100.581 117.591 101.041" fill="white"/>
<path d="M117.168 71.7669C118.794 69.0799 119.925 66.0746 120.456 62.9633C120.915 60.1701 120.951 56.9528 119.148 54.5839C117.663 52.6394 114.87 51.4726 112.536 52.4626C112.076 50.518 111.369 48.432 109.46 47.4774C107.763 46.5935 106.101 47.2299 104.758 48.3613C104.581 48.1845 104.298 48.2199 104.086 48.3967C103.273 47.6895 102.106 47.5128 101.01 47.7956C99.3836 48.2552 98.3584 49.7402 97.5452 51.119C97.5099 51.119 97.4745 51.1544 97.4391 51.1544C94.646 50.8362 92.0296 53.2404 91.9236 55.9982C91.8529 56.0335 91.7822 56.0689 91.7115 56.1043C91.6761 56.1043 91.6761 56.1396 91.6407 56.1396C89.5194 56.5285 87.8576 58.367 87.2212 60.4177C86.2666 63.3522 87.4334 66.5342 88.6708 69.1859C90.8276 73.8883 94.3278 77.8834 96.0602 82.7626C97.0502 85.485 97.227 88.3488 96.2724 91.1066C96.2017 91.3541 96.2724 91.5308 96.4491 91.6722C94.8935 91.9551 93.4792 92.9451 92.6307 94.2886C92.1004 95.1018 91.7822 96.0918 91.7822 97.0464C91.7822 98.3192 92.2418 99.5566 92.3832 100.794C92.4893 101.996 92.065 103.057 91.8529 104.224C91.7468 104.754 91.7114 105.249 91.8175 105.779C91.9236 106.38 92.2771 106.84 92.5246 107.406C92.7367 107.901 92.4892 108.254 92.171 108.643C91.7821 109.067 91.3933 109.492 91.0044 109.916C90.2619 110.8 89.5901 111.754 89.0244 112.78C87.7516 115.043 86.9737 117.517 86.6909 120.063C86.6202 120.735 87.6808 120.735 87.7516 120.063C87.9991 117.906 88.6709 115.75 89.6608 113.84C90.1558 112.886 90.7569 111.931 91.4286 111.083C91.7468 110.694 92.065 110.305 92.4186 109.916C92.7722 109.527 93.2318 109.138 93.4793 108.643C93.7268 108.219 93.7621 107.724 93.5853 107.229C93.4439 106.769 93.0903 106.38 92.9136 105.885C92.5246 104.825 93.0904 103.658 93.3025 102.597C93.55 101.466 93.4085 100.37 93.161 99.2384C92.9489 98.1778 92.6661 97.1171 92.9489 96.0564C93.4793 94.0411 95.4945 92.5208 97.5805 92.6269C97.7573 92.6269 97.8634 92.5915 97.9341 92.4854C101.045 93.1218 104.263 93.1572 107.374 92.5561C108.859 92.2733 110.379 91.8844 111.758 91.2834C112.571 90.9298 113.349 90.3995 113.844 89.6923C114.693 91.3894 115.223 93.2279 115.329 95.1371C115.365 95.7028 115.365 96.2331 115.329 96.7988C115.294 97.3999 115.294 98.001 115.612 98.5313C115.86 98.9556 116.213 99.2384 116.602 99.5213C116.814 99.6981 117.451 100.264 117.168 100.617C116.743 101.148 117.486 101.89 117.91 101.36C118.688 100.37 117.981 99.3092 117.168 98.6374C116.673 98.2485 116.355 97.8949 116.355 97.2232C116.355 96.5514 116.425 95.915 116.39 95.2432C116.284 92.6622 115.471 90.152 114.092 87.9952C114.056 87.9245 113.986 87.8538 113.915 87.8185C113.102 85.1668 112.289 82.3737 112.819 79.6159C113.526 76.7167 115.612 74.2772 117.168 71.7669ZM109.177 48.5027C110.627 49.3866 111.157 51.0837 111.511 52.6747C111.193 52.7101 110.839 52.7808 110.556 52.8515C110.026 52.9576 109.46 53.1697 109 53.4526C107.975 54.1243 107.586 55.291 107.834 56.4931C108.187 58.3316 109.814 59.4984 111.581 59.9227C111.511 60.0641 111.511 60.2408 111.581 60.3823C111.546 60.4176 111.511 60.4883 111.475 60.559C111.405 60.8419 111.299 61.1248 111.228 61.4076C111.193 61.5491 111.157 61.6905 111.086 61.8319C111.051 61.938 111.051 62.044 110.98 62.1148C110.874 62.2208 110.662 62.2562 110.521 62.2915C110.309 62.3269 110.097 62.3622 109.884 62.3622C109.107 62.3976 108.364 62.1854 107.728 61.7965C107.728 61.6904 107.763 61.6198 107.763 61.5137C107.834 60.0641 107.339 58.6145 107.197 57.1649C107.056 55.7507 106.879 54.3365 106.526 52.9222C106.207 51.6848 105.783 50.4473 105.288 49.2805C106.349 48.3259 107.728 47.6188 109.177 48.5027ZM101.045 48.8916C101.929 48.5027 103.414 48.6442 103.838 49.6695C103.945 49.917 104.192 50.0937 104.44 50.0584C104.899 51.1544 105.253 52.2858 105.536 53.4526C105.889 54.9729 106.031 56.4931 106.207 58.0134C106.349 59.2509 106.808 60.5237 106.667 61.7612L106.632 61.7965C106.561 61.9379 106.526 62.0794 106.596 62.1854C106.596 62.2208 106.561 62.2915 106.561 62.3268C106.42 62.8572 106.101 63.3875 105.536 63.5997C105.005 63.8118 104.44 63.7411 104.086 63.2815C103.98 63.1401 103.839 63.1047 103.697 63.1047C103.273 60.2409 102.283 57.377 100.939 54.8314C100.303 53.6293 99.6311 52.3211 98.5351 51.4726C99.1715 50.4826 99.914 49.3512 101.045 48.8916ZM97.6866 52.2504C97.722 52.2504 97.7219 52.2504 97.7573 52.2504C98.6412 52.8868 99.2069 53.8768 99.7373 54.8314C100.374 55.9982 100.939 57.2002 101.399 58.4377C101.859 59.7105 102.212 61.0187 102.495 62.3268C102.707 63.2814 102.99 64.4836 102.601 65.4736C102.354 66.11 101.788 66.2513 101.151 66.216C100.515 66.1806 99.9141 66.0746 99.313 65.8978C99.2069 65.0139 98.7826 64.0593 98.5351 63.3168C97.8987 61.5137 97.1916 59.6045 96.237 57.9427C95.5652 56.776 94.3278 55.6799 92.9842 55.7153C93.2317 53.5586 95.5652 51.7554 97.6866 52.2504ZM113.243 88.8791C112.819 89.7277 111.9 90.2226 111.051 90.5409C109.708 91.0712 108.293 91.4247 106.879 91.6722C103.98 92.1672 101.01 92.0965 98.1462 91.4954C97.9341 91.4601 97.7927 91.5308 97.6866 91.6369C97.5452 91.6369 97.4038 91.6369 97.2623 91.6369C97.2977 91.6016 97.3331 91.5308 97.3684 91.4601C97.9695 89.7631 98.1462 87.9953 98.0048 86.2628C98.0755 86.3336 98.2169 86.4042 98.3583 86.4042C103.061 86.5457 107.798 85.3436 111.829 82.904C112.006 84.9193 112.642 86.9346 113.243 88.8791ZM111.935 79.3331C111.758 80.1109 111.723 80.8887 111.723 81.7019C107.728 84.2121 103.025 85.4849 98.323 85.3082C98.1109 85.3082 97.9695 85.4143 97.8988 85.5203C97.8281 85.0607 97.7573 84.6011 97.6512 84.1415C97.0502 81.7373 95.9188 79.5098 94.6813 77.3885C93.4085 75.1964 91.9943 73.1104 90.7922 70.9183C89.4487 68.4434 88.0344 65.615 88.0344 62.7512C88.0344 60.2056 89.6962 57.1295 92.56 57.1295C92.8075 57.1295 92.9842 56.9881 93.0549 56.776C94.0449 56.7053 94.9642 57.6952 95.4239 58.5438C96.1663 59.8873 96.7673 61.3723 97.2976 62.8219C97.5805 63.5997 97.8281 64.3422 98.0755 65.12C98.1816 65.4382 98.323 65.8624 98.3583 66.216C98.3583 66.2513 98.3583 66.2867 98.3583 66.3221C98.3583 66.5696 98.2877 66.7817 98.0755 66.9585C97.1563 67.7363 95.5652 66.9938 94.752 66.3928C93.4085 65.4028 92.5954 63.8118 91.8529 62.3622C91.5347 61.7612 90.6154 62.2915 90.9336 62.8926C91.2518 63.529 91.57 64.13 91.959 64.7311C91.8882 64.7664 91.8176 64.7664 91.7115 64.8018C91.5701 64.8371 91.4286 64.8725 91.2871 64.8725C91.1811 64.9079 91.1458 64.9078 90.969 64.9078C90.4033 64.9432 89.9083 64.9432 89.4134 64.8018C89.1305 64.731 88.8123 64.8725 88.7769 65.1553C88.7062 65.4382 88.8476 65.7564 89.1305 65.7917C90.2619 66.0392 91.464 65.9686 92.56 65.5796C92.9843 66.1807 93.5146 66.711 94.0803 67.1707C95.2471 68.0546 97.0855 68.7263 98.4644 67.9131C98.8887 67.6656 99.1362 67.312 99.2776 66.9231C100.48 67.2767 102 67.4888 102.955 66.7463C103.662 66.1806 103.874 65.2968 103.874 64.4129C104.581 64.8372 105.536 64.8018 106.243 64.4129C106.844 64.0593 107.268 63.4936 107.48 62.8572C108.293 63.2814 109.213 63.4582 110.132 63.3875C110.662 63.3522 111.369 63.2461 111.758 62.7865C112.006 62.5036 112.076 62.1854 112.183 61.8319C112.218 61.6905 112.289 61.5137 112.324 61.3722C113.031 62.1501 113.986 62.6804 115.046 62.8926C115.329 62.9279 115.647 62.8219 115.683 62.539C115.753 62.2915 115.612 61.9379 115.329 61.9026C115.188 61.8672 115.011 61.8319 114.87 61.7965C114.799 61.7611 114.728 61.7612 114.657 61.7258C114.622 61.7258 114.551 61.6905 114.516 61.6905C114.233 61.5491 113.95 61.4076 113.667 61.2309C113.632 61.1955 113.632 61.1955 113.597 61.1602L113.561 61.1248C113.491 61.0894 113.455 61.0187 113.385 60.9834C113.279 60.8773 113.172 60.7712 113.066 60.6651C113.031 60.5944 112.96 60.5591 112.925 60.4883L112.89 60.453C112.854 60.4177 112.854 60.4176 112.819 60.3823C112.748 60.3116 112.713 60.2409 112.677 60.1348C112.854 60.1348 113.031 60.1701 113.208 60.1348C114.799 60.0994 116.319 59.4984 117.663 58.7559C118.264 58.4377 117.733 57.5185 117.132 57.8367C114.976 59.0388 111.97 59.8166 109.92 57.9781C109.107 57.271 108.47 55.9628 109.107 54.9021C109.389 54.4425 109.849 54.195 110.344 54.0536C110.627 53.9475 110.91 53.9121 111.193 53.8414C111.475 53.8061 111.758 53.7 112.006 53.7707C112.147 53.8414 112.289 53.8061 112.395 53.7707C112.43 53.7707 112.465 53.7354 112.501 53.7354C114.445 52.498 117.097 53.5233 118.37 55.291C120.032 57.5892 119.855 60.7712 119.324 63.4229C118.723 66.4282 117.557 69.2566 115.93 71.8376C114.41 74.1711 112.501 76.5046 111.935 79.3331ZM105.253 78.0602C101.258 76.8228 100.515 71.6961 101.116 68.1606C101.222 67.4888 102.248 67.7717 102.141 68.4434C101.611 71.378 102.141 76.0096 105.536 77.0349C106.207 77.2471 105.924 78.2723 105.253 78.0602Z" fill="black"/>
<path d="M35.4949 24.39C35.1059 23.8243 36.0251 23.294 36.4141 23.8597C39.49 28.3145 43.0256 32.3804 47.0208 36.0221C47.5158 36.4817 46.7734 37.2242 46.2784 36.7646C42.2125 33.0875 38.6062 28.9156 35.4949 24.39ZM146.442 17.9199C142.411 23.7889 138.628 29.7994 135.057 35.9514C134.032 37.7192 133.042 39.4869 132.052 41.2547C131.734 41.8558 132.653 42.3861 132.971 41.7851C136.401 35.5624 140.078 29.4459 143.967 23.5061C145.063 21.809 146.194 20.1119 147.361 18.4502C147.75 17.8845 146.83 17.3542 146.442 17.9199ZM111.475 0.241907C109.884 2.61075 111.156 6.14631 113.808 7.10092C114.409 7.31305 114.657 6.46453 114.232 6.14632C112.146 4.62602 108.929 5.72205 108.045 8.0909C107.798 8.7273 108.823 9.01017 109.07 8.37376C110.025 5.93421 108.399 2.89362 105.853 2.29257C105.818 2.64613 105.747 2.99965 105.712 3.31785C107.833 3.56534 109.954 2.85821 111.545 1.44397C112.04 0.984347 111.298 0.241925 110.803 0.701551C109.424 1.93901 107.55 2.46931 105.712 2.25718C105.111 2.18646 105.005 3.17639 105.57 3.28246C107.585 3.77744 108.788 6.11093 108.045 8.05551C108.399 8.16158 108.717 8.2323 109.07 8.33837C109.742 6.57058 112.217 5.93419 113.702 7.03022C113.843 6.71202 113.985 6.39383 114.126 6.07563C112.076 5.36851 111.227 2.5754 112.429 0.772246C112.783 0.206551 111.864 -0.323787 111.475 0.241907ZM22.8374 49.0683C23.1556 49.7047 23.7567 50.0584 24.3577 50.3766C24.9234 50.6948 25.383 51.0483 25.6305 51.6493C26.0901 52.71 25.878 54.0535 24.9941 54.8314C25.3123 54.9728 25.5952 55.0789 25.9134 55.2203C26.0194 54.0889 27.2923 53.3818 28.3176 53.3464C29.8025 53.2757 31.146 54.1243 32.3481 54.8668C32.4895 54.5486 32.631 54.2304 32.7724 53.9122C31.4642 53.3818 30.545 52.0383 30.545 50.6241C30.545 49.1745 31.4643 47.9016 32.7371 47.3359C33.2674 47.0884 32.9492 46.3813 32.4542 46.346C31.535 46.2752 30.7925 46.841 30.1915 47.442C29.5551 48.0431 28.9893 48.5734 28.1761 48.8209C26.6205 49.2805 24.8881 48.7855 23.8981 47.5127C23.4738 46.9824 22.7313 47.7249 23.1556 48.2552C24.287 49.6341 26.1608 50.2351 27.9286 49.9522C28.7772 49.8108 29.5904 49.4573 30.2268 48.8916C30.8985 48.3259 31.5349 47.3359 32.5249 47.4066C32.4188 47.0884 32.3481 46.7349 32.242 46.4166C30.5803 47.1591 29.4489 48.9269 29.5197 50.7654C29.5904 52.6393 30.8278 54.2657 32.5249 54.9375C33.0906 55.1496 33.4441 54.2657 32.9492 53.9829C31.4289 53.0636 29.7318 52.0736 27.8933 52.3918C26.4084 52.6393 25.0648 53.7 24.9234 55.2556C24.888 55.7506 25.5245 55.8921 25.8427 55.6446C26.9387 54.69 27.2569 53.0636 26.8327 51.72C26.6205 51.0483 26.2316 50.4473 25.6659 49.9876C25.0648 49.528 24.181 49.3159 23.8274 48.6088C23.4738 47.9017 22.5546 48.4319 22.8374 49.0683ZM83.0485 6.11093C82.8717 12.0507 83.3313 17.9905 84.4274 23.8243C84.5688 24.496 85.5587 24.2132 85.4527 23.5414C84.392 17.7784 83.9324 11.9447 84.1092 6.11093C84.1446 5.43917 83.0839 5.43917 83.0485 6.11093ZM145.947 57.3063C146.477 57.8013 147.325 57.6598 147.785 57.1295C148.033 56.8113 148.174 56.4578 148.174 56.0335C148.174 55.6446 148.068 55.2556 147.962 54.9021C147.891 54.6546 147.679 54.5132 147.467 54.5132C146.866 54.4778 146.265 54.4779 145.699 54.4425C145.416 54.4425 145.169 54.69 145.169 54.9728C145.169 55.2557 145.416 55.5032 145.699 55.5032C146.3 55.5385 146.901 55.5385 147.467 55.5739C147.29 55.4325 147.113 55.3264 146.972 55.1849C147.007 55.3264 147.043 55.4678 147.078 55.6092C147.078 55.6799 147.113 55.7506 147.113 55.8214V55.8567C147.113 55.786 147.113 55.7506 147.113 55.786C147.113 55.8213 147.113 55.8567 147.113 55.892C147.113 55.9628 147.113 56.0335 147.113 56.1042V56.1395C147.113 56.2102 147.113 56.1749 147.113 56.1042C147.113 56.1042 147.113 56.1749 147.078 56.2103C147.078 56.2457 147.078 56.2809 147.043 56.3163V56.3517C147.007 56.4224 147.043 56.387 147.078 56.3163C147.043 56.3517 147.043 56.387 147.007 56.4224C147.078 56.3163 147.078 56.3517 147.043 56.3871C147.043 56.4224 147.007 56.4224 147.007 56.4224C147.007 56.4224 146.972 56.4578 146.937 56.4578C147.043 56.3517 147.007 56.387 146.972 56.4224C146.937 56.4577 146.901 56.4577 146.831 56.4931C146.76 56.5284 146.937 56.4577 146.866 56.4931C146.831 56.4931 146.83 56.4931 146.795 56.5285C146.76 56.5285 146.76 56.5285 146.724 56.5285C146.618 56.5638 146.866 56.5285 146.76 56.5285C146.724 56.5285 146.724 56.5285 146.689 56.5285C146.583 56.5285 146.724 56.5285 146.76 56.5285C146.76 56.5285 146.689 56.5284 146.689 56.4931C146.583 56.4577 146.76 56.5285 146.724 56.5285C146.724 56.5285 146.689 56.4931 146.654 56.4931C146.618 56.4931 146.76 56.5991 146.689 56.4931C146.477 56.2809 146.123 56.2809 145.947 56.4931C145.77 56.7759 145.734 57.1295 145.947 57.3063ZM76.1541 18.9805C76.8966 21.4201 77.639 23.895 78.3815 26.3346C78.5936 26.971 79.619 26.7235 79.4069 26.0517C78.6644 23.6122 77.9219 21.1372 77.1794 18.6977C77.0026 18.0613 75.9773 18.3441 76.1541 18.9805ZM45.5005 29.9762C46.4905 30.9661 47.4451 31.9208 48.4351 32.9107C48.6472 33.1229 49.0008 33.1229 49.1776 32.9107C49.3543 32.6986 49.3897 32.3804 49.1776 32.1683C48.1876 31.1783 47.233 30.2237 46.243 29.2337C46.0309 29.0216 45.6773 29.0216 45.5005 29.2337C45.3237 29.4105 45.2884 29.764 45.5005 29.9762ZM133.431 27.8548C132.264 29.6226 131.133 31.3904 129.966 33.1582C129.577 33.7239 130.496 34.2542 130.885 33.6885C132.052 31.9207 133.183 30.1529 134.35 28.3851C134.739 27.8195 133.82 27.2538 133.431 27.8548Z" fill="black"/>
</svg>
